<svg xmlns="http://www.w3.org/2000/svg" xmlns:xlink="http://www.w3.org/1999/xlink" width="1080" zoomAndPan="magnify" viewBox="0 0 810 149.999998" height="200" preserveAspectRatio="xMidYMid meet" version="1.0"><defs><g/><clipPath id="ae7e6d7f45"><path d="M 630.648438 54.960938 L 684.296875 54.960938 L 684.296875 108.613281 L 630.648438 108.613281 Z M 630.648438 54.960938 " clip-rule="nonzero"/></clipPath><clipPath id="2169862d4c"><path d="M 657.472656 54.960938 C 642.65625 54.960938 630.648438 66.972656 630.648438 81.789062 C 630.648438 96.601562 642.65625 108.613281 657.472656 108.613281 C 672.285156 108.613281 684.296875 96.601562 684.296875 81.789062 C 684.296875 66.972656 672.285156 54.960938 657.472656 54.960938 Z M 657.472656 54.960938 " clip-rule="nonzero"/></clipPath><clipPath id="a14ef5c8d8"><path d="M 684.296875 54.222656 L 737.945312 54.222656 L 737.945312 107.875 L 684.296875 107.875 Z M 684.296875 54.222656 " clip-rule="nonzero"/></clipPath><clipPath id="b0d0760541"><path d="M 711.121094 54.222656 C 696.304688 54.222656 684.296875 66.234375 684.296875 81.046875 C 684.296875 95.863281 696.304688 107.875 711.121094 107.875 C 725.9375 107.875 737.945312 95.863281 737.945312 81.046875 C 737.945312 66.234375 725.9375 54.222656 711.121094 54.222656 Z M 711.121094 54.222656 " clip-rule="nonzero"/></clipPath><clipPath id="af50802dde"><path d="M 208.089844 9.933594 L 225.773438 9.933594 L 225.773438 139.398438 L 208.089844 139.398438 Z M 208.089844 9.933594 " clip-rule="nonzero"/></clipPath><clipPath id="c71785140f"><path d="M 216.933594 9.933594 C 219.277344 9.933594 221.527344 10.867188 223.183594 12.523438 C 224.84375 14.183594 225.773438 16.429688 225.773438 18.777344 L 225.773438 130.496094 C 225.773438 132.84375 224.84375 135.089844 223.183594 136.75 C 221.527344 138.40625 219.277344 139.339844 216.933594 139.339844 C 214.585938 139.339844 212.339844 138.40625 210.679688 136.75 C 209.019531 135.089844 208.089844 132.84375 208.089844 130.496094 L 208.089844 18.777344 C 208.089844 16.429688 209.019531 14.183594 210.679688 12.523438 C 212.339844 10.867188 214.585938 9.933594 216.933594 9.933594 Z M 216.933594 9.933594 " clip-rule="nonzero"/></clipPath><clipPath id="f71cca167c"><path d="M 64.078125 9.933594 L 185.789062 9.933594 L 185.789062 131.644531 L 64.078125 131.644531 Z M 64.078125 9.933594 " clip-rule="nonzero"/></clipPath><clipPath id="d970c74ee3"><path d="M 124.933594 9.933594 C 91.324219 9.933594 64.078125 37.179688 64.078125 70.789062 C 64.078125 104.398438 91.324219 131.644531 124.933594 131.644531 C 158.542969 131.644531 185.789062 104.398438 185.789062 70.789062 C 185.789062 37.179688 158.542969 9.933594 124.933594 9.933594 Z M 124.933594 9.933594 " clip-rule="nonzero"/></clipPath><clipPath id="cc63610d8a"><path d="M 8.875 52.15625 L 90.015625 52.15625 L 90.015625 133.296875 L 8.875 133.296875 Z M 8.875 52.15625 " clip-rule="nonzero"/></clipPath><clipPath id="1e9c4d2489"><path d="M 49.445312 52.15625 C 27.039062 52.15625 8.875 70.320312 8.875 92.726562 C 8.875 115.132812 27.039062 133.296875 49.445312 133.296875 C 71.851562 133.296875 90.015625 115.132812 90.015625 92.726562 C 90.015625 70.320312 71.851562 52.15625 49.445312 52.15625 Z M 49.445312 52.15625 " clip-rule="nonzero"/></clipPath></defs><g clip-path="url(#ae7e6d7f45)"><g clip-path="url(#2169862d4c)"><path fill="#f7931a" d="M 630.648438 54.960938 L 684.296875 54.960938 L 684.296875 108.613281 L 630.648438 108.613281 Z M 630.648438 54.960938 " fill-opacity="1" fill-rule="nonzero"/></g></g><g clip-path="url(#a14ef5c8d8)"><g clip-path="url(#b0d0760541)"><path fill="#f7931a" d="M 684.296875 54.222656 L 737.945312 54.222656 L 737.945312 107.875 L 684.296875 107.875 Z M 684.296875 54.222656 " fill-opacity="1" fill-rule="nonzero"/></g></g><g clip-path="url(#af50802dde)"><g clip-path="url(#c71785140f)"><path fill="#ffffff" d="M 208.089844 9.933594 L 225.773438 9.933594 L 225.773438 139.328125 L 208.089844 139.328125 Z M 208.089844 9.933594 " fill-opacity="1" fill-rule="nonzero"/></g></g><g clip-path="url(#f71cca167c)"><g clip-path="url(#d970c74ee3)"><path fill="#f7931a" d="M 64.078125 9.933594 L 185.789062 9.933594 L 185.789062 131.644531 L 64.078125 131.644531 Z M 64.078125 9.933594 " fill-opacity="1" fill-rule="nonzero"/></g></g><g clip-path="url(#cc63610d8a)"><g clip-path="url(#1e9c4d2489)"><path fill="#ffffff" d="M 8.875 52.15625 L 90.015625 52.15625 L 90.015625 133.296875 L 8.875 133.296875 Z M 8.875 52.15625 " fill-opacity="1" fill-rule="nonzero"/></g></g><path stroke-linecap="butt" transform="matrix(3.865055, 0, 0, 3.865055, 226.904847, 41.204623)" fill="none" stroke-linejoin="miter" d="M 24.598773 -2.689749 C 25.539696 -2.689749 26.218858 -2.664483 26.634239 -2.612939 C 27.038502 -2.552299 27.307337 -2.46134 27.438722 -2.340061 C 27.560001 -2.218782 27.621652 -2.010587 27.621652 -1.717496 L 27.621652 17.103992 C 27.621652 17.397083 27.554948 17.605278 27.423563 17.726557 C 27.292177 17.847836 26.998075 17.938796 26.542269 18.000446 C 26.077366 18.061085 25.322404 18.091405 24.279405 18.091405 C 23.236406 18.091405 22.526924 18.030765 22.15298 17.908476 C 21.767919 17.797303 21.494031 17.590118 21.332326 17.28591 L 15.605936 7.290501 L 15.605936 17.134312 C 15.605936 17.427402 15.545297 17.635598 15.423007 17.756877 C 15.291622 17.878156 15.023797 17.964062 14.618523 18.015606 C 14.203143 18.066138 13.524991 18.091405 12.583058 18.091405 C 11.641124 18.091405 10.967015 18.061085 10.562752 18.000446 C 10.147371 17.948902 9.878536 17.862996 9.757257 17.741717 C 9.635978 17.630545 9.575339 17.427402 9.575339 17.134312 L 9.575339 -1.687176 C 9.575339 -1.980267 9.641032 -2.193516 9.772417 -2.324901 C 9.893696 -2.44618 10.187798 -2.53714 10.653711 -2.597779 C 11.109518 -2.659429 11.858416 -2.689749 12.901415 -2.689749 C 13.944414 -2.689749 14.65895 -2.634163 15.04401 -2.52198 C 15.417954 -2.400701 15.686789 -2.188463 15.848494 -1.884254 L 21.575894 8.141475 L 21.575894 -1.717496 C 21.575894 -2.010587 21.641587 -2.218782 21.772973 -2.340061 C 21.894252 -2.46134 22.163087 -2.552299 22.578467 -2.612939 C 22.98273 -2.664483 23.656839 -2.689749 24.598773 -2.689749 Z M 37.074338 2.141197 C 39.747529 2.141197 41.697088 2.794082 42.922006 4.100863 C 44.137828 5.406634 44.745233 7.448163 44.745233 10.22242 C 44.745233 12.997688 44.137828 15.038207 42.922006 16.343977 C 41.697088 17.650758 39.747529 18.303643 37.074338 18.303643 C 34.400136 18.303643 32.450576 17.645705 31.225659 16.328817 C 29.99973 15.023047 29.387271 12.987581 29.387271 10.22242 C 29.387271 7.45827 29.99973 5.417751 31.225659 4.100863 C 32.450576 2.794082 34.400136 2.141197 37.074338 2.141197 Z M 37.074338 13.761745 C 37.823235 13.761745 38.334629 13.498974 38.608517 12.972421 C 38.871288 12.455975 39.002674 11.539308 39.002674 10.22242 C 39.002674 8.905533 38.871288 7.984823 38.608517 7.45827 C 38.334629 6.941824 37.823235 6.683095 37.074338 6.683095 C 36.324429 6.683095 35.81809 6.941824 35.555318 7.45827 C 35.28143 7.984823 35.144991 8.905533 35.144991 10.22242 C 35.144991 11.539308 35.28143 12.455975 35.555318 12.972421 C 35.81809 13.498974 36.324429 13.761745 37.074338 13.761745 Z M 51.934045 -2.720069 L 51.934045 4.055384 C 52.835552 2.778923 54.248453 2.141197 56.172746 2.141197 C 58.107146 2.141197 59.564515 2.773869 60.546874 4.040224 C 61.529234 5.305568 62.020414 7.3663 62.020414 10.22242 C 62.020414 13.07854 61.529234 15.139272 60.546874 16.404616 C 59.564515 17.670971 58.107146 18.303643 56.172746 18.303643 C 54.208026 18.303643 52.764806 17.640651 51.843086 16.313657 L 51.812766 17.194951 C 51.80266 17.457722 51.74202 17.645705 51.630848 17.756877 C 51.518665 17.868049 51.276107 17.948902 50.901153 18.000446 C 50.516092 18.061085 49.89858 18.091405 49.048616 18.091405 C 48.187535 18.091405 47.570023 18.066138 47.195069 18.015606 C 46.810008 17.964062 46.562397 17.878156 46.450214 17.756877 C 46.328935 17.645705 46.268295 17.457722 46.268295 17.194951 L 46.268295 -2.720069 C 46.268295 -2.98284 46.328935 -3.175876 46.450214 -3.297155 C 46.572504 -3.408327 46.825168 -3.48918 47.210229 -3.539713 C 47.59529 -3.590245 48.227962 -3.615512 49.109256 -3.615512 C 49.989539 -3.615512 50.623222 -3.590245 51.007272 -3.539713 C 51.392332 -3.48918 51.646008 -3.408327 51.767287 -3.297155 C 51.878459 -3.185982 51.934045 -2.992946 51.934045 -2.720069 Z M 51.934045 10.22242 C 51.934045 11.498881 52.101815 12.394325 52.435332 12.910771 C 52.759753 13.437324 53.336839 13.701106 54.1676 13.701106 C 54.926604 13.701106 55.463264 13.437324 55.777578 12.910771 C 56.081787 12.394325 56.233385 11.498881 56.233385 10.22242 C 56.233385 8.94697 56.081787 8.045462 55.777578 7.518909 C 55.463264 7.002463 54.926604 6.743735 54.1676 6.743735 C 53.336839 6.743735 52.759753 7.002463 52.435332 7.518909 C 52.101815 8.045462 51.934045 8.94697 51.934045 10.22242 Z M 69.847962 13.214979 L 69.999561 13.214979 C 70.273449 13.214979 70.470527 13.265512 70.592817 13.366578 C 70.703989 13.468654 70.789895 13.685946 70.850535 14.020474 C 70.911174 14.364097 70.941494 14.900757 70.941494 15.630452 C 70.941494 16.663345 70.865695 17.326337 70.714096 17.620438 C 70.562497 17.913529 70.222916 18.061085 69.696363 18.061085 L 67.948935 18.061085 C 66.237891 18.061085 65.083719 17.756877 64.485409 17.149471 C 63.88811 16.552172 63.589966 15.38183 63.589966 13.640466 L 63.589966 -2.720069 C 63.589966 -2.98284 63.650606 -3.175876 63.771885 -3.297155 C 63.893164 -3.408327 64.146839 -3.48918 64.5319 -3.539713 C 64.91595 -3.590245 65.549633 -3.615512 66.429916 -3.615512 C 67.31121 -3.615512 67.943882 -3.590245 68.328943 -3.539713 C 68.714003 -3.48918 68.966668 -3.408327 69.088958 -3.297155 C 69.20013 -3.185982 69.255716 -2.992946 69.255716 -2.720069 L 69.255716 12.562094 C 69.255716 12.814758 69.301196 12.987581 69.392155 13.07854 C 69.473008 13.169499 69.625617 13.214979 69.847962 13.214979 Z M 85.331246 11.406912 L 77.083264 11.406912 C 77.15401 12.409485 77.366248 13.103807 77.720989 13.488867 C 78.065624 13.883024 78.602283 14.081113 79.330968 14.081113 C 79.786775 14.081113 80.141516 14.005314 80.39418 13.852704 C 80.637749 13.711212 80.769134 13.519187 80.789348 13.275619 C 80.809561 13.002741 80.860094 12.814758 80.941957 12.713693 C 81.012703 12.612627 81.219888 12.531774 81.564522 12.471135 C 81.89804 12.419591 82.471083 12.394325 83.28062 12.394325 C 83.827386 12.394325 84.242767 12.399378 84.526762 12.409485 C 84.809746 12.429698 85.068474 12.455975 85.300926 12.486295 C 85.534388 12.526721 85.69104 12.592414 85.771892 12.683373 C 85.852745 12.784439 85.913385 12.900664 85.954822 13.033061 C 85.995248 13.164446 86.015461 13.346365 86.015461 13.579827 C 86.015461 14.177126 85.893171 14.744105 85.650614 15.280764 C 85.396938 15.827531 85.017941 16.328817 84.511602 16.784624 C 84.005262 17.250537 83.300833 17.620438 82.399326 17.893316 C 81.49883 18.167204 80.45583 18.303643 79.270328 18.303643 C 76.617351 18.303643 74.652631 17.645705 73.37617 16.328817 C 72.100719 15.01294 71.462994 12.977474 71.462994 10.22242 C 71.462994 7.448163 72.075453 5.406634 73.30037 4.100863 C 74.516192 2.794082 76.455645 2.141197 79.11873 2.141197 C 81.508936 2.141197 83.29578 2.773869 84.481282 4.040224 C 85.655667 5.305568 86.242859 7.068156 86.242859 9.325966 L 86.242859 10.010182 C 86.242859 10.556948 86.187273 10.925838 86.076101 11.118874 C 85.964928 11.310899 85.716306 11.406912 85.331246 11.406912 Z M 79.209689 6.363727 C 78.531537 6.363727 78.035304 6.541603 77.720989 6.895333 C 77.396568 7.260181 77.194436 7.832214 77.113584 8.612442 L 80.880307 8.612442 L 80.880307 8.262754 C 80.880307 7.655348 80.764081 7.184382 80.53163 6.849854 C 80.298168 6.526443 79.857521 6.363727 79.209689 6.363727 Z M 94.328125 10.784346 L 93.979448 10.784346 L 93.979448 17.134312 C 93.979448 17.427402 93.918808 17.635598 93.796519 17.756877 C 93.665133 17.878156 93.397309 17.964062 92.992035 18.015606 C 92.576654 18.066138 91.898503 18.091405 90.956569 18.091405 C 90.014636 18.091405 89.340527 18.061085 88.936263 18.000446 C 88.520883 17.948902 88.252048 17.862996 88.130769 17.741717 C 88.00949 17.630545 87.94885 17.427402 87.94885 17.134312 L 87.94885 -1.626537 C 87.94885 -1.909521 88.019596 -2.116706 88.161088 -2.249102 C 88.292474 -2.370381 88.576469 -2.46134 89.012063 -2.52198 C 89.43755 -2.572513 90.130861 -2.597779 91.093008 -2.597779 L 95.786505 -2.597779 C 98.672944 -2.597779 100.75389 -2.06112 102.030351 -0.987801 C 103.295695 0.095625 103.928367 1.831936 103.928367 4.222142 C 103.928367 6.763948 102.905581 8.566962 100.860009 9.630174 C 101.458318 10.005129 101.974765 10.491255 102.409348 11.088554 C 103.411921 12.516614 104.106243 14.374204 104.491304 16.663345 C 104.541837 16.916009 104.556996 17.129258 104.536783 17.30107 C 104.51657 17.483999 104.414494 17.630545 104.232575 17.741717 C 104.04055 17.862996 103.706022 17.948902 103.230002 18.000446 C 102.743876 18.061085 102.065724 18.091405 101.194537 18.091405 C 100.383989 18.091405 99.78669 18.061085 99.401629 18.000446 C 99.007472 17.938796 98.748744 17.85289 98.627465 17.741717 C 98.496079 17.630545 98.399056 17.447616 98.338417 17.194951 C 97.994793 15.615292 97.4834 14.172072 96.804237 12.865291 C 96.075553 11.549414 95.249845 10.855092 94.328125 10.784346 Z M 93.979448 2.445405 L 93.979448 6.06053 L 95.589426 6.06053 C 96.430294 6.06053 97.012433 5.944304 97.335844 5.710842 C 97.650158 5.478391 97.80681 4.992264 97.80681 4.252462 C 97.80681 3.60463 97.634998 3.138717 97.290364 2.854722 C 96.94674 2.581844 96.37875 2.445405 95.589426 2.445405 Z M 93.979448 2.445405 " stroke="#808080" stroke-width="0.42787" stroke-opacity="1" stroke-miterlimit="4"/><path stroke-linecap="butt" transform="matrix(3.865055, 0, 0, 3.865055, 226.904847, 41.204623)" fill="none" stroke-linejoin="miter" d="M 143.214673 7.108582 L 139.888597 7.108582 L 139.888597 12.501454 C 139.888597 12.784439 139.974502 13.002741 140.146314 13.15434 C 140.318126 13.316045 140.551588 13.396898 140.844679 13.396898 C 141.26006 13.396898 141.685547 13.316045 142.12114 13.15434 C 142.485988 13.033061 142.779079 13.06338 143.002434 13.245299 C 143.224779 13.427217 143.493614 13.943664 143.806918 14.794638 C 144.0707 15.483907 144.202086 16.015513 144.202086 16.389457 C 144.202086 16.79473 143.984794 17.124205 143.549201 17.37687 C 142.637587 17.953955 141.22974 18.243004 139.32566 18.243004 C 137.422591 18.243004 136.095596 17.817517 135.346699 16.967553 C 134.59679 16.126685 134.221836 14.769371 134.221836 12.895611 L 134.221836 7.108582 L 132.825106 7.108582 C 132.591644 7.108582 132.424886 7.063103 132.32382 6.972143 C 132.221743 6.880174 132.150997 6.678042 132.110571 6.363727 C 132.070145 6.06053 132.049932 5.55419 132.049932 4.844708 C 132.049932 4.136236 132.075198 3.629897 132.125731 3.325689 C 132.166157 3.022491 132.23185 2.824402 132.32382 2.733443 C 132.414779 2.642484 132.581538 2.586897 132.825106 2.566684 L 134.465405 2.445405 L 134.465405 -0.881681 C 134.465405 -1.145463 134.531097 -1.332435 134.662483 -1.443607 C 134.783762 -1.544673 135.022277 -1.615419 135.377018 -1.656856 C 135.730749 -1.697283 136.333101 -1.717496 137.184075 -1.717496 C 138.035049 -1.717496 138.637402 -1.697283 138.992143 -1.656856 C 139.335766 -1.615419 139.574282 -1.544673 139.705667 -1.443607 C 139.826946 -1.332435 139.888597 -1.145463 139.888597 -0.881681 L 139.888597 2.445405 L 143.214673 2.445405 C 143.549201 2.445405 143.761439 2.576791 143.852398 2.839562 C 143.944368 3.11345 143.989848 3.761282 143.989848 4.784068 C 143.989848 5.806854 143.944368 6.450644 143.852398 6.713415 C 143.761439 6.977197 143.549201 7.108582 143.214673 7.108582 Z M 143.214673 7.108582 " stroke="#808080" stroke-width="0.42787" stroke-opacity="1" stroke-miterlimit="4"/><g fill="#ffffff" fill-opacity="1"><g transform="translate(257.160984, 110.775621)"><g><path d="M 64.8125 -79.953125 C 68.457031 -79.953125 71.082031 -79.859375 72.6875 -79.671875 C 74.25 -79.429688 75.285156 -79.078125 75.796875 -78.609375 C 76.265625 -78.140625 76.5 -77.335938 76.5 -76.203125 L 76.5 -3.46875 C 76.5 -2.332031 76.242188 -1.53125 75.734375 -1.0625 C 75.222656 -0.59375 74.085938 -0.238281 72.328125 0 C 70.523438 0.238281 67.609375 0.359375 63.578125 0.359375 C 59.546875 0.359375 56.804688 0.117188 55.359375 -0.359375 C 53.867188 -0.785156 52.8125 -1.585938 52.1875 -2.765625 L 30.0625 -41.390625 L 30.0625 -3.34375 C 30.0625 -2.207031 29.828125 -1.40625 29.359375 -0.9375 C 28.847656 -0.46875 27.8125 -0.132812 26.25 0.0625 C 24.632812 0.257812 22.007812 0.359375 18.375 0.359375 C 14.738281 0.359375 12.132812 0.238281 10.5625 0 C 8.957031 -0.195312 7.921875 -0.53125 7.453125 -1 C 6.984375 -1.425781 6.75 -2.207031 6.75 -3.34375 L 6.75 -76.078125 C 6.75 -77.210938 7.003906 -78.035156 7.515625 -78.546875 C 7.984375 -79.015625 9.117188 -79.367188 10.921875 -79.609375 C 12.679688 -79.835938 15.578125 -79.953125 19.609375 -79.953125 C 23.640625 -79.953125 26.398438 -79.738281 27.890625 -79.3125 C 29.335938 -78.84375 30.375 -78.019531 31 -76.84375 L 53.125 -38.109375 L 53.125 -76.203125 C 53.125 -77.335938 53.378906 -78.140625 53.890625 -78.609375 C 54.359375 -79.078125 55.394531 -79.429688 57 -79.671875 C 58.570312 -79.859375 61.175781 -79.953125 64.8125 -79.953125 Z M 64.8125 -79.953125 "/></g></g></g><g fill="#ffffff" fill-opacity="1"><g transform="translate(336.144518, 110.775621)"><g><path d="M 34.046875 -61.296875 C 44.378906 -61.296875 51.914062 -58.769531 56.65625 -53.71875 C 61.351562 -48.664062 63.703125 -40.78125 63.703125 -30.0625 C 63.703125 -19.332031 61.351562 -11.445312 56.65625 -6.40625 C 51.914062 -1.351562 44.378906 1.171875 34.046875 1.171875 C 23.710938 1.171875 16.179688 -1.367188 11.453125 -6.453125 C 6.710938 -11.503906 4.34375 -19.375 4.34375 -30.0625 C 4.34375 -40.738281 6.710938 -48.625 11.453125 -53.71875 C 16.179688 -58.769531 23.710938 -61.296875 34.046875 -61.296875 Z M 34.046875 -16.375 C 36.941406 -16.375 38.921875 -17.394531 39.984375 -19.4375 C 40.992188 -21.425781 41.5 -24.96875 41.5 -30.0625 C 41.5 -35.144531 40.992188 -38.707031 39.984375 -40.75 C 38.921875 -42.738281 36.941406 -43.734375 34.046875 -43.734375 C 31.148438 -43.734375 29.195312 -42.738281 28.1875 -40.75 C 27.125 -38.707031 26.59375 -35.144531 26.59375 -30.0625 C 26.59375 -24.96875 27.125 -21.425781 28.1875 -19.4375 C 29.195312 -17.394531 31.148438 -16.375 34.046875 -16.375 Z M 34.046875 -16.375 "/></g></g></g><g fill="#ffffff" fill-opacity="1"><g transform="translate(399.980698, 110.775621)"><g><path d="M 27.65625 -80.078125 L 27.65625 -53.890625 C 31.132812 -58.828125 36.59375 -61.296875 44.03125 -61.296875 C 51.507812 -61.296875 57.144531 -58.847656 60.9375 -53.953125 C 64.738281 -49.054688 66.640625 -41.09375 66.640625 -30.0625 C 66.640625 -19.019531 64.738281 -11.054688 60.9375 -6.171875 C 57.144531 -1.273438 51.507812 1.171875 44.03125 1.171875 C 36.4375 1.171875 30.859375 -1.390625 27.296875 -6.515625 L 27.1875 -3.109375 C 27.144531 -2.085938 26.910156 -1.363281 26.484375 -0.9375 C 26.046875 -0.507812 25.101562 -0.195312 23.65625 0 C 22.164062 0.238281 19.78125 0.359375 16.5 0.359375 C 13.164062 0.359375 10.773438 0.257812 9.328125 0.0625 C 7.847656 -0.132812 6.890625 -0.46875 6.453125 -0.9375 C 5.984375 -1.363281 5.75 -2.085938 5.75 -3.109375 L 5.75 -80.078125 C 5.75 -81.097656 5.984375 -81.84375 6.453125 -82.3125 C 6.921875 -82.738281 7.898438 -83.050781 9.390625 -83.25 C 10.878906 -83.445312 13.328125 -83.546875 16.734375 -83.546875 C 20.140625 -83.546875 22.585938 -83.445312 24.078125 -83.25 C 25.554688 -83.050781 26.53125 -82.738281 27 -82.3125 C 27.4375 -81.875 27.65625 -81.128906 27.65625 -80.078125 Z M 27.65625 -30.0625 C 27.65625 -25.125 28.300781 -21.660156 29.59375 -19.671875 C 30.84375 -17.628906 33.070312 -16.609375 36.28125 -16.609375 C 39.21875 -16.609375 41.289062 -17.628906 42.5 -19.671875 C 43.675781 -21.660156 44.265625 -25.125 44.265625 -30.0625 C 44.265625 -34.988281 43.675781 -38.472656 42.5 -40.515625 C 41.289062 -42.503906 39.21875 -43.5 36.28125 -43.5 C 33.070312 -43.5 30.84375 -42.503906 29.59375 -40.515625 C 28.300781 -38.472656 27.65625 -34.988281 27.65625 -30.0625 Z M 27.65625 -30.0625 "/></g></g></g><g fill="#ffffff" fill-opacity="1"><g transform="translate(466.928514, 110.775621)"><g><path d="M 29.9375 -18.5 L 30.53125 -18.5 C 31.582031 -18.5 32.34375 -18.300781 32.8125 -17.90625 C 33.25 -17.507812 33.582031 -16.664062 33.8125 -15.375 C 34.050781 -14.050781 34.171875 -11.976562 34.171875 -9.15625 C 34.171875 -5.164062 33.875 -2.601562 33.28125 -1.46875 C 32.695312 -0.332031 31.390625 0.234375 29.359375 0.234375 L 22.609375 0.234375 C 15.992188 0.234375 11.53125 -0.9375 9.21875 -3.28125 C 6.90625 -5.59375 5.75 -10.113281 5.75 -16.84375 L 5.75 -80.078125 C 5.75 -81.097656 5.984375 -81.84375 6.453125 -82.3125 C 6.921875 -82.738281 7.898438 -83.050781 9.390625 -83.25 C 10.878906 -83.445312 13.328125 -83.546875 16.734375 -83.546875 C 20.140625 -83.546875 22.585938 -83.445312 24.078125 -83.25 C 25.554688 -83.050781 26.53125 -82.738281 27 -82.3125 C 27.4375 -81.875 27.65625 -81.128906 27.65625 -80.078125 L 27.65625 -21.015625 C 27.65625 -20.035156 27.832031 -19.367188 28.1875 -19.015625 C 28.5 -18.671875 29.082031 -18.5 29.9375 -18.5 Z M 29.9375 -18.5 "/></g></g></g><g fill="#ffffff" fill-opacity="1"><g transform="translate(498.767348, 110.775621)"><g><path d="M 57.9375 -25.484375 L 26.0625 -25.484375 C 26.34375 -21.609375 27.164062 -18.925781 28.53125 -17.4375 C 29.863281 -15.90625 31.9375 -15.140625 34.75 -15.140625 C 36.507812 -15.140625 37.878906 -15.4375 38.859375 -16.03125 C 39.804688 -16.570312 40.316406 -17.316406 40.390625 -18.265625 C 40.472656 -19.316406 40.671875 -20.039062 40.984375 -20.4375 C 41.253906 -20.820312 42.054688 -21.132812 43.390625 -21.375 C 44.679688 -21.5625 46.890625 -21.65625 50.015625 -21.65625 C 52.128906 -21.65625 53.734375 -21.640625 54.828125 -21.609375 C 55.929688 -21.523438 56.929688 -21.425781 57.828125 -21.3125 C 58.722656 -21.15625 59.328125 -20.898438 59.640625 -20.546875 C 59.960938 -20.148438 60.203125 -19.703125 60.359375 -19.203125 C 60.515625 -18.691406 60.59375 -17.984375 60.59375 -17.078125 C 60.59375 -14.773438 60.117188 -12.585938 59.171875 -10.515625 C 58.191406 -8.398438 56.726562 -6.460938 54.78125 -4.703125 C 52.820312 -2.898438 50.097656 -1.46875 46.609375 -0.40625 C 43.128906 0.644531 39.097656 1.171875 34.515625 1.171875 C 24.265625 1.171875 16.671875 -1.367188 11.734375 -6.453125 C 6.804688 -11.546875 4.34375 -19.414062 4.34375 -30.0625 C 4.34375 -40.78125 6.710938 -48.664062 11.453125 -53.71875 C 16.148438 -58.769531 23.644531 -61.296875 33.9375 -61.296875 C 43.164062 -61.296875 50.070312 -58.847656 54.65625 -53.953125 C 59.195312 -49.054688 61.46875 -42.242188 61.46875 -33.515625 L 61.46875 -30.875 C 61.46875 -28.757812 61.253906 -27.332031 60.828125 -26.59375 C 60.390625 -25.851562 59.425781 -25.484375 57.9375 -25.484375 Z M 34.28125 -44.96875 C 31.664062 -44.96875 29.75 -44.285156 28.53125 -42.921875 C 27.28125 -41.503906 26.5 -39.289062 26.1875 -36.28125 L 40.75 -36.28125 L 40.75 -37.625 C 40.75 -39.976562 40.296875 -41.800781 39.390625 -43.09375 C 38.492188 -44.34375 36.789062 -44.96875 34.28125 -44.96875 Z M 34.28125 -44.96875 "/></g></g></g><g fill="#ffffff" fill-opacity="1"><g transform="translate(560.078925, 110.775621)"><g><path d="M 31.40625 -27.890625 L 30.0625 -27.890625 L 30.0625 -3.34375 C 30.0625 -2.207031 29.828125 -1.40625 29.359375 -0.9375 C 28.847656 -0.46875 27.8125 -0.132812 26.25 0.0625 C 24.632812 0.257812 22.007812 0.359375 18.375 0.359375 C 14.738281 0.359375 12.132812 0.238281 10.5625 0 C 8.957031 -0.195312 7.921875 -0.53125 7.453125 -1 C 6.984375 -1.425781 6.75 -2.207031 6.75 -3.34375 L 6.75 -75.84375 C 6.75 -76.945312 7.023438 -77.753906 7.578125 -78.265625 C 8.085938 -78.734375 9.179688 -79.082031 10.859375 -79.3125 C 12.503906 -79.507812 15.1875 -79.609375 18.90625 -79.609375 L 37.046875 -79.609375 C 48.203125 -79.609375 56.242188 -77.535156 61.171875 -73.390625 C 66.066406 -69.203125 68.515625 -62.488281 68.515625 -53.25 C 68.515625 -43.425781 64.5625 -36.457031 56.65625 -32.34375 C 58.96875 -30.894531 60.960938 -29.019531 62.640625 -26.71875 C 66.515625 -21.195312 69.195312 -14.015625 70.6875 -5.171875 C 70.882812 -4.191406 70.941406 -3.367188 70.859375 -2.703125 C 70.785156 -1.992188 70.394531 -1.425781 69.6875 -1 C 68.945312 -0.53125 67.65625 -0.195312 65.8125 0 C 63.9375 0.238281 61.3125 0.359375 57.9375 0.359375 C 54.8125 0.359375 52.503906 0.238281 51.015625 0 C 49.492188 -0.238281 48.492188 -0.570312 48.015625 -1 C 47.515625 -1.425781 47.144531 -2.128906 46.90625 -3.109375 C 45.570312 -9.210938 43.597656 -14.789062 40.984375 -19.84375 C 38.160156 -24.925781 34.96875 -27.609375 31.40625 -27.890625 Z M 30.0625 -60.125 L 30.0625 -46.140625 L 36.28125 -46.140625 C 39.53125 -46.140625 41.78125 -46.59375 43.03125 -47.5 C 44.25 -48.394531 44.859375 -50.269531 44.859375 -53.125 C 44.859375 -55.632812 44.191406 -57.4375 42.859375 -58.53125 C 41.523438 -59.59375 39.332031 -60.125 36.28125 -60.125 Z M 30.0625 -60.125 "/></g></g></g><g fill="#ffffff" fill-opacity="1"><g transform="translate(630.380403, 110.775621)"><g/></g></g><g fill="#ffffff" fill-opacity="1"><g transform="translate(651.416472, 110.775621)"><g/></g></g><g fill="#ffffff" fill-opacity="1"><g transform="translate(672.452542, 110.775621)"><g/></g></g><g fill="#ffffff" fill-opacity="1"><g transform="translate(693.488612, 110.775621)"><g/></g></g><g fill="#ffffff" fill-opacity="1"><g transform="translate(714.524682, 110.775621)"><g/></g></g><g fill="#ffffff" fill-opacity="1"><g transform="translate(735.582381, 110.775621)"><g><path d="M 44.859375 -42.09375 L 32 -42.09375 L 32 -21.25 C 32 -20.15625 32.332031 -19.316406 33 -18.734375 C 33.65625 -18.097656 34.550781 -17.78125 35.6875 -17.78125 C 37.300781 -17.78125 38.945312 -18.097656 40.625 -18.734375 C 42.03125 -19.203125 43.164062 -19.082031 44.03125 -18.375 C 44.894531 -17.664062 45.929688 -15.671875 47.140625 -12.390625 C 48.160156 -9.722656 48.671875 -7.664062 48.671875 -6.21875 C 48.671875 -4.65625 47.828125 -3.382812 46.140625 -2.40625 C 42.617188 -0.175781 37.179688 0.9375 29.828125 0.9375 C 22.460938 0.9375 17.332031 -0.703125 14.4375 -3.984375 C 11.539062 -7.234375 10.09375 -12.476562 10.09375 -19.71875 L 10.09375 -42.09375 L 4.703125 -42.09375 C 3.796875 -42.09375 3.148438 -42.269531 2.765625 -42.625 C 2.367188 -42.976562 2.09375 -43.757812 1.9375 -44.96875 C 1.78125 -46.144531 1.703125 -48.101562 1.703125 -50.84375 C 1.703125 -53.582031 1.800781 -55.539062 2 -56.71875 C 2.15625 -57.882812 2.410156 -58.644531 2.765625 -59 C 3.109375 -59.351562 3.753906 -59.566406 4.703125 -59.640625 L 11.03125 -60.125 L 11.03125 -72.96875 C 11.03125 -73.988281 11.285156 -74.710938 11.796875 -75.140625 C 12.265625 -75.535156 13.1875 -75.8125 14.5625 -75.96875 C 15.925781 -76.125 18.253906 -76.203125 21.546875 -76.203125 C 24.835938 -76.203125 27.164062 -76.125 28.53125 -75.96875 C 29.863281 -75.8125 30.785156 -75.535156 31.296875 -75.140625 C 31.765625 -74.710938 32 -73.988281 32 -72.96875 L 32 -60.125 L 44.859375 -60.125 C 46.148438 -60.125 46.96875 -59.613281 47.3125 -58.59375 C 47.664062 -57.53125 47.84375 -55.023438 47.84375 -51.078125 C 47.84375 -47.117188 47.664062 -44.632812 47.3125 -43.625 C 46.96875 -42.601562 46.148438 -42.09375 44.859375 -42.09375 Z M 44.859375 -42.09375 "/></g></g></g></svg>