<svg xmlns="http://www.w3.org/2000/svg" xmlns:xlink="http://www.w3.org/1999/xlink" width="1920" zoomAndPan="magnify" viewBox="0 0 1440 809.999993" height="1080" preserveAspectRatio="xMidYMid meet" version="1.0"><defs><filter x="0%" y="0%" width="100%" height="100%" id="03980d296b"><feColorMatrix values="0 0 0 0 1 0 0 0 0 1 0 0 0 0 1 0 0 0 1 0" color-interpolation-filters="sRGB"/></filter><linearGradient x1="960" gradientTransform="matrix(0.75, 0, 0, 0.75, 0.00000622222, 0.00002)" y1="0" x2="960" gradientUnits="userSpaceOnUse" y2="1079.999955" id="0ef163f822"><stop stop-opacity="1" stop-color="rgb(11.799622%, 0%, 19.198608%)" offset="0"/><stop stop-opacity="1" stop-color="rgb(11.865234%, 0.00457764%, 19.302368%)" offset="0.0078125"/><stop stop-opacity="1" stop-color="rgb(11.99646%, 0.0137329%, 19.511414%)" offset="0.015625"/><stop stop-opacity="1" stop-color="rgb(12.127686%, 0.0228882%, 19.720459%)" offset="0.0234375"/><stop stop-opacity="1" stop-color="rgb(12.258911%, 0.0320435%, 19.929504%)" offset="0.03125"/><stop stop-opacity="1" stop-color="rgb(12.390137%, 0.0411987%, 20.137024%)" offset="0.0390625"/><stop stop-opacity="1" stop-color="rgb(12.521362%, 0.050354%, 20.346069%)" offset="0.046875"/><stop stop-opacity="1" stop-color="rgb(12.652588%, 0.0595093%, 20.555115%)" offset="0.0546875"/><stop stop-opacity="1" stop-color="rgb(12.783813%, 0.0701904%, 20.762634%)" offset="0.0625"/><stop stop-opacity="1" stop-color="rgb(12.915039%, 0.0793457%, 20.97168%)" offset="0.0703125"/><stop stop-opacity="1" stop-color="rgb(13.046265%, 0.088501%, 21.180725%)" offset="0.078125"/><stop stop-opacity="1" stop-color="rgb(13.17749%, 0.0976562%, 21.388245%)" offset="0.0859375"/><stop stop-opacity="1" stop-color="rgb(13.308716%, 0.106812%, 21.59729%)" offset="0.09375"/><stop stop-opacity="1" stop-color="rgb(13.439941%, 0.115967%, 21.806335%)" offset="0.101562"/><stop stop-opacity="1" stop-color="rgb(13.571167%, 0.125122%, 22.015381%)" offset="0.109375"/><stop stop-opacity="1" stop-color="rgb(13.702393%, 0.135803%, 22.2229%)" offset="0.117188"/><stop stop-opacity="1" stop-color="rgb(13.833618%, 0.144958%, 22.431946%)" offset="0.125"/><stop stop-opacity="1" stop-color="rgb(13.964844%, 0.154114%, 22.640991%)" offset="0.132812"/><stop stop-opacity="1" stop-color="rgb(14.096069%, 0.163269%, 22.848511%)" offset="0.140625"/><stop stop-opacity="1" stop-color="rgb(14.227295%, 0.172424%, 23.057556%)" offset="0.148437"/><stop stop-opacity="1" stop-color="rgb(14.358521%, 0.18158%, 23.266602%)" offset="0.15625"/><stop stop-opacity="1" stop-color="rgb(14.489746%, 0.190735%, 23.474121%)" offset="0.164062"/><stop stop-opacity="1" stop-color="rgb(14.620972%, 0.201416%, 23.683167%)" offset="0.171875"/><stop stop-opacity="1" stop-color="rgb(14.752197%, 0.210571%, 23.892212%)" offset="0.179687"/><stop stop-opacity="1" stop-color="rgb(14.883423%, 0.219727%, 24.101257%)" offset="0.1875"/><stop stop-opacity="1" stop-color="rgb(15.014648%, 0.228882%, 24.308777%)" offset="0.195312"/><stop stop-opacity="1" stop-color="rgb(15.145874%, 0.238037%, 24.517822%)" offset="0.203125"/><stop stop-opacity="1" stop-color="rgb(15.2771%, 0.247192%, 24.726868%)" offset="0.210938"/><stop stop-opacity="1" stop-color="rgb(15.408325%, 0.256348%, 24.934387%)" offset="0.21875"/><stop stop-opacity="1" stop-color="rgb(15.539551%, 0.267029%, 25.143433%)" offset="0.226562"/><stop stop-opacity="1" stop-color="rgb(15.670776%, 0.276184%, 25.352478%)" offset="0.234375"/><stop stop-opacity="1" stop-color="rgb(15.802002%, 0.285339%, 25.561523%)" offset="0.242188"/><stop stop-opacity="1" stop-color="rgb(15.933228%, 0.294495%, 25.769043%)" offset="0.25"/><stop stop-opacity="1" stop-color="rgb(16.064453%, 0.30365%, 25.978088%)" offset="0.257812"/><stop stop-opacity="1" stop-color="rgb(16.195679%, 0.312805%, 26.187134%)" offset="0.265625"/><stop stop-opacity="1" stop-color="rgb(16.326904%, 0.32196%, 26.394653%)" offset="0.273437"/><stop stop-opacity="1" stop-color="rgb(16.45813%, 0.332642%, 26.603699%)" offset="0.28125"/><stop stop-opacity="1" stop-color="rgb(16.589355%, 0.341797%, 26.812744%)" offset="0.289062"/><stop stop-opacity="1" stop-color="rgb(16.720581%, 0.350952%, 27.020264%)" offset="0.296875"/><stop stop-opacity="1" stop-color="rgb(16.851807%, 0.360107%, 27.229309%)" offset="0.304687"/><stop stop-opacity="1" stop-color="rgb(16.983032%, 0.369263%, 27.438354%)" offset="0.3125"/><stop stop-opacity="1" stop-color="rgb(17.114258%, 0.378418%, 27.6474%)" offset="0.320312"/><stop stop-opacity="1" stop-color="rgb(17.245483%, 0.387573%, 27.854919%)" offset="0.328125"/><stop stop-opacity="1" stop-color="rgb(17.376709%, 0.398254%, 28.063965%)" offset="0.335937"/><stop stop-opacity="1" stop-color="rgb(17.507935%, 0.40741%, 28.27301%)" offset="0.34375"/><stop stop-opacity="1" stop-color="rgb(17.63916%, 0.416565%, 28.48053%)" offset="0.351562"/><stop stop-opacity="1" stop-color="rgb(17.770386%, 0.42572%, 28.689575%)" offset="0.359375"/><stop stop-opacity="1" stop-color="rgb(17.901611%, 0.434875%, 28.898621%)" offset="0.367187"/><stop stop-opacity="1" stop-color="rgb(18.032837%, 0.444031%, 29.10614%)" offset="0.375"/><stop stop-opacity="1" stop-color="rgb(18.165588%, 0.453186%, 29.315186%)" offset="0.382812"/><stop stop-opacity="1" stop-color="rgb(18.296814%, 0.463867%, 29.524231%)" offset="0.390625"/><stop stop-opacity="1" stop-color="rgb(18.42804%, 0.473022%, 29.733276%)" offset="0.398438"/><stop stop-opacity="1" stop-color="rgb(18.559265%, 0.482178%, 29.940796%)" offset="0.40625"/><stop stop-opacity="1" stop-color="rgb(18.690491%, 0.491333%, 30.149841%)" offset="0.414062"/><stop stop-opacity="1" stop-color="rgb(18.821716%, 0.500488%, 30.358887%)" offset="0.421875"/><stop stop-opacity="1" stop-color="rgb(18.952942%, 0.509644%, 30.566406%)" offset="0.429688"/><stop stop-opacity="1" stop-color="rgb(19.084167%, 0.518799%, 30.775452%)" offset="0.4375"/><stop stop-opacity="1" stop-color="rgb(19.215393%, 0.52948%, 30.984497%)" offset="0.445312"/><stop stop-opacity="1" stop-color="rgb(19.346619%, 0.538635%, 31.193542%)" offset="0.453125"/><stop stop-opacity="1" stop-color="rgb(19.477844%, 0.547791%, 31.401062%)" offset="0.460938"/><stop stop-opacity="1" stop-color="rgb(19.60907%, 0.556946%, 31.610107%)" offset="0.46875"/><stop stop-opacity="1" stop-color="rgb(19.740295%, 0.566101%, 31.819153%)" offset="0.476562"/><stop stop-opacity="1" stop-color="rgb(19.871521%, 0.575256%, 32.026672%)" offset="0.484375"/><stop stop-opacity="1" stop-color="rgb(20.002747%, 0.584412%, 32.235718%)" offset="0.492188"/><stop stop-opacity="1" stop-color="rgb(20.133972%, 0.595093%, 32.444763%)" offset="0.5"/><stop stop-opacity="1" stop-color="rgb(20.265198%, 0.604248%, 32.652283%)" offset="0.507812"/><stop stop-opacity="1" stop-color="rgb(20.396423%, 0.613403%, 32.861328%)" offset="0.515625"/><stop stop-opacity="1" stop-color="rgb(20.527649%, 0.622559%, 33.070374%)" offset="0.523437"/><stop stop-opacity="1" stop-color="rgb(20.658875%, 0.631714%, 33.279419%)" offset="0.53125"/><stop stop-opacity="1" stop-color="rgb(20.7901%, 0.640869%, 33.486938%)" offset="0.539062"/><stop stop-opacity="1" stop-color="rgb(20.921326%, 0.650024%, 33.695984%)" offset="0.546875"/><stop stop-opacity="1" stop-color="rgb(21.052551%, 0.660706%, 33.905029%)" offset="0.554687"/><stop stop-opacity="1" stop-color="rgb(21.183777%, 0.669861%, 34.112549%)" offset="0.5625"/><stop stop-opacity="1" stop-color="rgb(21.315002%, 0.679016%, 34.321594%)" offset="0.570312"/><stop stop-opacity="1" stop-color="rgb(21.446228%, 0.688171%, 34.53064%)" offset="0.578125"/><stop stop-opacity="1" stop-color="rgb(21.577454%, 0.697327%, 34.739685%)" offset="0.585937"/><stop stop-opacity="1" stop-color="rgb(21.708679%, 0.706482%, 34.947205%)" offset="0.59375"/><stop stop-opacity="1" stop-color="rgb(21.839905%, 0.715637%, 35.15625%)" offset="0.601562"/><stop stop-opacity="1" stop-color="rgb(21.97113%, 0.726318%, 35.365295%)" offset="0.609375"/><stop stop-opacity="1" stop-color="rgb(22.102356%, 0.735474%, 35.572815%)" offset="0.617187"/><stop stop-opacity="1" stop-color="rgb(22.233582%, 0.744629%, 35.78186%)" offset="0.625"/><stop stop-opacity="1" stop-color="rgb(22.364807%, 0.753784%, 35.990906%)" offset="0.632812"/><stop stop-opacity="1" stop-color="rgb(22.496033%, 0.762939%, 36.198425%)" offset="0.640625"/><stop stop-opacity="1" stop-color="rgb(22.627258%, 0.772095%, 36.407471%)" offset="0.648437"/><stop stop-opacity="1" stop-color="rgb(22.758484%, 0.78125%, 36.616516%)" offset="0.65625"/><stop stop-opacity="1" stop-color="rgb(22.889709%, 0.791931%, 36.825562%)" offset="0.664062"/><stop stop-opacity="1" stop-color="rgb(23.020935%, 0.801086%, 37.033081%)" offset="0.671875"/><stop stop-opacity="1" stop-color="rgb(23.152161%, 0.810242%, 37.242126%)" offset="0.679687"/><stop stop-opacity="1" stop-color="rgb(23.283386%, 0.819397%, 37.451172%)" offset="0.6875"/><stop stop-opacity="1" stop-color="rgb(23.414612%, 0.828552%, 37.658691%)" offset="0.695312"/><stop stop-opacity="1" stop-color="rgb(23.545837%, 0.837708%, 37.867737%)" offset="0.703125"/><stop stop-opacity="1" stop-color="rgb(23.677063%, 0.846863%, 38.076782%)" offset="0.710937"/><stop stop-opacity="1" stop-color="rgb(23.808289%, 0.857544%, 38.284302%)" offset="0.71875"/><stop stop-opacity="1" stop-color="rgb(23.939514%, 0.866699%, 38.493347%)" offset="0.726562"/><stop stop-opacity="1" stop-color="rgb(24.07074%, 0.875854%, 38.702393%)" offset="0.734375"/><stop stop-opacity="1" stop-color="rgb(24.201965%, 0.88501%, 38.911438%)" offset="0.742187"/><stop stop-opacity="1" stop-color="rgb(24.333191%, 0.894165%, 39.118958%)" offset="0.75"/><stop stop-opacity="1" stop-color="rgb(24.464417%, 0.90332%, 39.328003%)" offset="0.757812"/><stop stop-opacity="1" stop-color="rgb(24.595642%, 0.912476%, 39.537048%)" offset="0.765625"/><stop stop-opacity="1" stop-color="rgb(24.726868%, 0.923157%, 39.744568%)" offset="0.773438"/><stop stop-opacity="1" stop-color="rgb(24.858093%, 0.932312%, 39.953613%)" offset="0.78125"/><stop stop-opacity="1" stop-color="rgb(24.989319%, 0.941467%, 40.162659%)" offset="0.789062"/><stop stop-opacity="1" stop-color="rgb(25.120544%, 0.950623%, 40.371704%)" offset="0.796875"/><stop stop-opacity="1" stop-color="rgb(25.25177%, 0.959778%, 40.579224%)" offset="0.804688"/><stop stop-opacity="1" stop-color="rgb(25.382996%, 0.968933%, 40.788269%)" offset="0.8125"/><stop stop-opacity="1" stop-color="rgb(25.514221%, 0.978088%, 40.997314%)" offset="0.820312"/><stop stop-opacity="1" stop-color="rgb(25.645447%, 0.98877%, 41.204834%)" offset="0.828125"/><stop stop-opacity="1" stop-color="rgb(25.776672%, 0.997925%, 41.413879%)" offset="0.835938"/><stop stop-opacity="1" stop-color="rgb(25.907898%, 1.00708%, 41.622925%)" offset="0.84375"/><stop stop-opacity="1" stop-color="rgb(26.039124%, 1.016235%, 41.830444%)" offset="0.851562"/><stop stop-opacity="1" stop-color="rgb(26.170349%, 1.025391%, 42.03949%)" offset="0.859375"/><stop stop-opacity="1" stop-color="rgb(26.303101%, 1.034546%, 42.248535%)" offset="0.867188"/><stop stop-opacity="1" stop-color="rgb(26.434326%, 1.043701%, 42.457581%)" offset="0.875"/><stop stop-opacity="1" stop-color="rgb(26.565552%, 1.054382%, 42.6651%)" offset="0.882812"/><stop stop-opacity="1" stop-color="rgb(26.696777%, 1.063538%, 42.874146%)" offset="0.890625"/><stop stop-opacity="1" stop-color="rgb(26.828003%, 1.072693%, 43.083191%)" offset="0.898438"/><stop stop-opacity="1" stop-color="rgb(26.959229%, 1.081848%, 43.29071%)" offset="0.90625"/><stop stop-opacity="1" stop-color="rgb(27.090454%, 1.091003%, 43.499756%)" offset="0.914062"/><stop stop-opacity="1" stop-color="rgb(27.22168%, 1.100159%, 43.708801%)" offset="0.921875"/><stop stop-opacity="1" stop-color="rgb(27.352905%, 1.109314%, 43.916321%)" offset="0.929688"/><stop stop-opacity="1" stop-color="rgb(27.484131%, 1.119995%, 44.125366%)" offset="0.9375"/><stop stop-opacity="1" stop-color="rgb(27.615356%, 1.12915%, 44.334412%)" offset="0.945312"/><stop stop-opacity="1" stop-color="rgb(27.746582%, 1.138306%, 44.543457%)" offset="0.953125"/><stop stop-opacity="1" stop-color="rgb(27.877808%, 1.147461%, 44.750977%)" offset="0.960938"/><stop stop-opacity="1" stop-color="rgb(28.009033%, 1.156616%, 44.960022%)" offset="0.96875"/><stop stop-opacity="1" stop-color="rgb(28.140259%, 1.165771%, 45.169067%)" offset="0.976562"/><stop stop-opacity="1" stop-color="rgb(28.271484%, 1.174927%, 45.376587%)" offset="0.984375"/><stop stop-opacity="1" stop-color="rgb(28.40271%, 1.185608%, 45.585632%)" offset="0.992188"/><stop stop-opacity="1" stop-color="rgb(28.533936%, 1.194763%, 45.794678%)" offset="1"/></linearGradient><clipPath id="9efa23285b"><path d="M 676 19.238281 L 697 19.238281 L 697 39 L 676 39 Z M 676 19.238281 " clip-rule="nonzero"/></clipPath><clipPath id="c59182c4d7"><path d="M 988 309 L 999.441406 309 L 999.441406 322 L 988 322 Z M 988 309 " clip-rule="nonzero"/></clipPath><clipPath id="df77cf7e12"><path d="M 958 339 L 964 339 L 964 343.238281 L 958 343.238281 Z M 958 339 " clip-rule="nonzero"/></clipPath><clipPath id="b077207918"><path d="M 440.691406 171 L 445 171 L 445 177 L 440.691406 177 Z M 440.691406 171 " clip-rule="nonzero"/></clipPath><clipPath id="38799a2802"><path d="M 1400 254 L 1419.832031 254 L 1419.832031 275 L 1400 275 Z M 1400 254 " clip-rule="nonzero"/></clipPath><clipPath id="4431ddea69"><path d="M 1117 566 L 1130 566 L 1130 577.996094 L 1117 577.996094 Z M 1117 566 " clip-rule="nonzero"/></clipPath><clipPath id="41b68c5b19"><path d="M 1095.832031 537 L 1101 537 L 1101 542 L 1095.832031 542 Z M 1095.832031 537 " clip-rule="nonzero"/></clipPath><clipPath id="790a4d1b52"><path d="M 1263 19.246094 L 1268 19.246094 L 1268 24 L 1263 24 Z M 1263 19.246094 " clip-rule="nonzero"/></clipPath><clipPath id="ac785ead56"><path d="M 324 170 L 343.933594 170 L 343.933594 191 L 324 191 Z M 324 170 " clip-rule="nonzero"/></clipPath><clipPath id="39755c458e"><path d="M 41 482 L 54 482 L 54 493.863281 L 41 493.863281 Z M 41 482 " clip-rule="nonzero"/></clipPath><clipPath id="3dba14dbfc"><path d="M 19.933594 453 L 25 453 L 25 458 L 19.933594 458 Z M 19.933594 453 " clip-rule="nonzero"/></clipPath><mask id="9191b2ae73"><g filter="url(#03980d296b)"><rect x="-144" width="1728" fill="#000000" y="-80.999999" height="971.999992" fill-opacity="0.06"/></g></mask><clipPath id="ff4ee8f378"><path d="M 0 0 L 613 0 L 613 810 L 0 810 Z M 0 0 " clip-rule="nonzero"/></clipPath><clipPath id="3dc499dc42"><path d="M -25.675781 -64.886719 L 648.363281 798.070312 L 242.890625 1114.777344 L -431.148438 251.816406 Z M -25.675781 -64.886719 " clip-rule="nonzero"/></clipPath><clipPath id="3c6a24cacf"><path d="M 15.414062 -12.285156 L 648.363281 798.070312 L 242.890625 1114.777344 L -390.058594 304.421875 Z M 15.414062 -12.285156 " clip-rule="nonzero"/></clipPath><clipPath id="fdb1b75434"><path d="M -25.667969 -64.878906 L 648.371094 798.082031 L 242.898438 1114.785156 L -431.140625 251.824219 Z M -25.667969 -64.878906 " clip-rule="nonzero"/></clipPath><clipPath id="2187fc02b0"><rect x="0" width="649" y="0" height="810"/></clipPath><mask id="4a5deb8ea4"><g filter="url(#03980d296b)"><rect x="-144" width="1728" fill="#000000" y="-80.999999" height="971.999992" fill-opacity="0.06"/></g></mask><clipPath id="7cdb0dc0c6"><path d="M 13 0 L 462 0 L 462 810 L 13 810 Z M 13 0 " clip-rule="nonzero"/></clipPath><clipPath id="9225d27793"><path d="M 0.636719 934.765625 L 339.179688 -106.585938 L 828.472656 52.484375 L 489.929688 1093.835938 Z M 0.636719 934.765625 " clip-rule="nonzero"/></clipPath><clipPath id="9264030c6a"><path d="M 0.636719 934.765625 L 319.703125 -46.671875 L 700.582031 77.152344 L 381.515625 1058.589844 Z M 0.636719 934.765625 " clip-rule="nonzero"/></clipPath><clipPath id="b5aaaddeca"><path d="M 0.636719 934.765625 L 339.179688 -106.585938 L 828.472656 52.484375 L 489.929688 1093.835938 Z M 0.636719 934.765625 " clip-rule="nonzero"/></clipPath><clipPath id="d5d78b0d3b"><rect x="0" width="462" y="0" height="810"/></clipPath></defs><rect x="-144" width="1728" fill="#ffffff" y="-80.999999" height="971.999992" fill-opacity="1"/><rect x="-144" fill="url(#0ef163f822)" width="1728" y="-80.999999" height="971.999992"/><g clip-path="url(#9efa23285b)"><path fill="#ffffff" d="M 686.3125 19.261719 L 687.351562 26.699219 C 687.402344 27.039062 687.5625 27.355469 687.808594 27.601562 C 688.054688 27.84375 688.371094 28.003906 688.710938 28.058594 L 696.136719 29.097656 L 688.699219 30.132812 C 688.355469 30.1875 688.039062 30.347656 687.796875 30.589844 C 687.554688 30.839844 687.394531 31.152344 687.339844 31.496094 L 686.300781 38.917969 L 685.261719 31.484375 C 685.179688 31.171875 685 30.894531 684.753906 30.683594 C 684.507812 30.441406 684.191406 30.285156 683.851562 30.226562 L 676.425781 29.191406 L 683.859375 28.152344 C 684.214844 28.066406 684.53125 27.863281 684.753906 27.570312 C 684.996094 27.324219 685.15625 27.007812 685.210938 26.667969 Z M 686.3125 19.261719 " fill-opacity="1" fill-rule="nonzero"/></g><path fill="#ffffff" d="M 955.300781 125.171875 L 956.722656 134.953125 C 956.785156 135.402344 956.996094 135.816406 957.316406 136.136719 C 957.636719 136.457031 958.050781 136.667969 958.5 136.738281 L 968.28125 138.148438 L 958.5 139.574219 C 957.570312 139.695312 956.839844 140.421875 956.710938 141.347656 L 955.300781 151.128906 L 953.878906 141.347656 C 953.8125 140.898438 953.605469 140.484375 953.285156 140.164062 C 952.964844 139.84375 952.550781 139.632812 952.101562 139.5625 L 942.316406 138.148438 L 952.101562 136.726562 C 953.027344 136.605469 953.761719 135.878906 953.886719 134.953125 Z M 955.300781 125.171875 " fill-opacity="1" fill-rule="nonzero"/><path fill="#ffffff" d="M 560.644531 317.257812 L 561.496094 323.125 C 561.539062 323.394531 561.664062 323.648438 561.859375 323.839844 C 562.046875 324.039062 562.296875 324.164062 562.566406 324.195312 L 568.433594 325.046875 L 562.566406 325.898438 C 562.292969 325.9375 562.042969 326.066406 561.847656 326.261719 C 561.652344 326.445312 561.527344 326.695312 561.496094 326.964844 L 560.644531 332.832031 L 559.792969 326.964844 C 559.75 326.695312 559.625 326.445312 559.429688 326.25 C 559.242188 326.050781 558.992188 325.929688 558.722656 325.898438 L 552.855469 325.046875 L 558.722656 324.195312 C 558.992188 324.152344 559.246094 324.023438 559.441406 323.832031 C 559.636719 323.644531 559.761719 323.394531 559.792969 323.125 Z M 560.644531 317.257812 " fill-opacity="1" fill-rule="nonzero"/><path fill="#ffffff" d="M 599.589844 58.71875 C 599.589844 59.132812 599.511719 59.53125 599.351562 59.910156 C 599.195312 60.292969 598.96875 60.628906 598.679688 60.921875 C 598.386719 61.214844 598.050781 61.4375 597.667969 61.597656 C 597.285156 61.753906 596.886719 61.835938 596.476562 61.835938 C 596.0625 61.835938 595.664062 61.753906 595.28125 61.597656 C 594.902344 61.4375 594.5625 61.214844 594.273438 60.921875 C 593.980469 60.628906 593.753906 60.292969 593.597656 59.910156 C 593.4375 59.53125 593.359375 59.132812 593.359375 58.71875 C 593.359375 58.304688 593.4375 57.910156 593.597656 57.527344 C 593.753906 57.144531 593.980469 56.808594 594.273438 56.515625 C 594.5625 56.226562 594.902344 56 595.28125 55.839844 C 595.664062 55.683594 596.0625 55.605469 596.476562 55.605469 C 596.886719 55.605469 597.285156 55.683594 597.667969 55.839844 C 598.050781 56 598.386719 56.226562 598.679688 56.515625 C 598.96875 56.808594 599.195312 57.144531 599.351562 57.527344 C 599.511719 57.910156 599.589844 58.304688 599.589844 58.71875 Z M 599.589844 58.71875 " fill-opacity="1" fill-rule="nonzero"/><path fill="#ffffff" d="M 718.507812 180.203125 L 719.128906 184.511719 C 719.164062 184.703125 719.253906 184.882812 719.390625 185.03125 C 719.535156 185.164062 719.722656 185.253906 719.917969 185.289062 L 724.21875 185.910156 L 719.910156 186.535156 C 719.714844 186.570312 719.535156 186.660156 719.390625 186.792969 C 719.253906 186.941406 719.164062 187.125 719.128906 187.324219 L 718.507812 191.621094 L 717.882812 187.3125 C 717.847656 187.121094 717.757812 186.941406 717.625 186.792969 C 717.476562 186.660156 717.292969 186.566406 717.09375 186.535156 L 712.792969 185.910156 L 717.105469 185.289062 C 717.300781 185.253906 717.480469 185.164062 717.625 185.03125 C 717.761719 184.882812 717.851562 184.699219 717.882812 184.5 Z M 718.507812 180.203125 " fill-opacity="1" fill-rule="nonzero"/><path fill="#ffffff" d="M 779.78125 129.324219 L 780.40625 133.632812 C 780.441406 133.828125 780.53125 134.007812 780.664062 134.152344 C 780.8125 134.289062 780.996094 134.378906 781.195312 134.410156 L 785.496094 135.035156 L 781.183594 135.65625 C 780.988281 135.691406 780.808594 135.785156 780.664062 135.917969 C 780.527344 136.066406 780.4375 136.25 780.40625 136.445312 L 779.78125 140.746094 L 779.160156 136.4375 C 779.125 136.242188 779.035156 136.0625 778.898438 135.917969 C 778.753906 135.78125 778.566406 135.691406 778.371094 135.65625 L 774.070312 135.035156 L 778.378906 134.410156 C 778.574219 134.375 778.753906 134.285156 778.898438 134.152344 C 779.035156 134.003906 779.125 133.820312 779.160156 133.621094 Z M 779.78125 129.324219 " fill-opacity="1" fill-rule="nonzero"/><path fill="#ffffff" d="M 539.871094 218.617188 L 541.066406 226.832031 C 541.109375 227.226562 541.285156 227.589844 541.566406 227.871094 C 541.847656 228.148438 542.210938 228.328125 542.605469 228.378906 L 550.777344 229.519531 L 542.5625 230.714844 C 542.167969 230.757812 541.800781 230.933594 541.523438 231.214844 C 541.246094 231.492188 541.066406 231.859375 541.015625 232.25 L 539.871094 240.421875 L 538.679688 232.210938 C 538.636719 231.816406 538.460938 231.449219 538.179688 231.171875 C 537.898438 230.890625 537.535156 230.714844 537.140625 230.664062 L 528.96875 229.519531 L 537.183594 228.328125 C 537.578125 228.285156 537.941406 228.109375 538.222656 227.828125 C 538.5 227.546875 538.679688 227.183594 538.730469 226.789062 Z M 539.871094 218.617188 " fill-opacity="1" fill-rule="nonzero"/><path fill="#ffffff" d="M 468.210938 299.605469 L 468.835938 303.914062 C 468.871094 304.109375 468.960938 304.289062 469.09375 304.433594 C 469.242188 304.570312 469.425781 304.660156 469.625 304.695312 L 473.921875 305.316406 L 469.613281 305.941406 C 469.417969 305.976562 469.238281 306.066406 469.09375 306.199219 C 468.957031 306.347656 468.867188 306.53125 468.835938 306.730469 L 468.210938 311.027344 L 467.589844 306.71875 C 467.554688 306.523438 467.460938 306.34375 467.328125 306.199219 C 467.179688 306.0625 466.996094 305.972656 466.800781 305.941406 L 462.5 305.316406 L 466.808594 304.695312 C 467.003906 304.660156 467.183594 304.570312 467.328125 304.433594 C 467.464844 304.289062 467.554688 304.105469 467.589844 303.90625 Z M 468.210938 299.605469 " fill-opacity="1" fill-rule="nonzero"/><path fill="#ffffff" d="M 873.253906 183.316406 L 873.875 187.625 C 873.910156 187.820312 874.003906 188 874.136719 188.144531 C 874.285156 188.28125 874.46875 188.371094 874.664062 188.402344 L 878.964844 189.027344 L 874.664062 189.648438 C 874.253906 189.699219 873.925781 190.027344 873.875 190.4375 L 873.253906 194.738281 L 872.628906 190.429688 C 872.59375 190.234375 872.503906 190.054688 872.371094 189.910156 C 872.222656 189.773438 872.039062 189.683594 871.839844 189.648438 L 867.542969 189.027344 L 871.839844 188.402344 C 872.253906 188.355469 872.582031 188.027344 872.628906 187.613281 Z M 873.253906 183.316406 " fill-opacity="1" fill-rule="nonzero"/><path fill="#ffffff" d="M 528.449219 299.605469 L 529.070312 303.90625 C 529.121094 304.320312 529.449219 304.644531 529.859375 304.695312 L 534.160156 305.316406 L 529.859375 305.941406 C 529.449219 305.988281 529.121094 306.316406 529.070312 306.730469 L 528.449219 311.027344 L 527.824219 306.71875 C 527.789062 306.523438 527.699219 306.34375 527.566406 306.199219 C 527.421875 306.058594 527.234375 305.96875 527.035156 305.941406 L 522.738281 305.316406 L 527.035156 304.695312 C 527.449219 304.644531 527.777344 304.320312 527.824219 303.90625 Z M 528.449219 299.605469 " fill-opacity="1" fill-rule="nonzero"/><g clip-path="url(#c59182c4d7)"><path fill="#ffffff" d="M 993.726562 309.988281 L 994.351562 314.296875 C 994.378906 314.496094 994.476562 314.679688 994.621094 314.816406 C 994.765625 314.953125 994.945312 315.042969 995.140625 315.078125 L 999.441406 315.699219 L 995.140625 316.324219 C 994.726562 316.375 994.402344 316.699219 994.351562 317.113281 L 993.726562 321.410156 L 993.105469 317.101562 C 993.070312 316.90625 992.980469 316.726562 992.84375 316.582031 C 992.695312 316.445312 992.511719 316.355469 992.316406 316.324219 L 988.015625 315.699219 L 992.324219 315.078125 C 992.519531 315.042969 992.699219 314.953125 992.84375 314.816406 C 992.980469 314.671875 993.070312 314.488281 993.105469 314.289062 Z M 993.726562 309.988281 " fill-opacity="1" fill-rule="nonzero"/></g><path fill="#ffffff" d="M 685.273438 102.328125 L 686.125 108.195312 C 686.164062 108.464844 686.292969 108.71875 686.488281 108.910156 C 686.675781 109.109375 686.925781 109.234375 687.195312 109.265625 L 693.0625 110.117188 L 687.195312 110.96875 C 686.921875 111.007812 686.671875 111.136719 686.476562 111.332031 C 686.28125 111.515625 686.15625 111.765625 686.125 112.035156 L 685.273438 117.902344 L 684.421875 112.035156 C 684.378906 111.765625 684.25 111.515625 684.058594 111.320312 C 683.871094 111.121094 683.621094 111 683.351562 110.96875 L 677.484375 110.117188 L 683.351562 109.265625 C 683.621094 109.222656 683.875 109.09375 684.066406 108.902344 C 684.265625 108.714844 684.390625 108.464844 684.421875 108.195312 Z M 685.273438 102.328125 " fill-opacity="1" fill-rule="nonzero"/><path fill="#ffffff" d="M 925.183594 320.371094 L 926.035156 326.238281 C 926.074219 326.511719 926.203125 326.761719 926.398438 326.957031 C 926.582031 327.152344 926.832031 327.277344 927.101562 327.308594 L 932.972656 328.160156 L 927.101562 329.011719 C 926.832031 329.054688 926.582031 329.179688 926.386719 329.375 C 926.1875 329.5625 926.066406 329.8125 926.035156 330.082031 L 925.183594 335.949219 L 924.332031 330.082031 C 924.289062 329.808594 924.160156 329.558594 923.964844 329.363281 C 923.78125 329.167969 923.53125 329.042969 923.261719 329.011719 L 917.394531 328.160156 L 923.261719 327.308594 C 923.53125 327.265625 923.78125 327.140625 923.976562 326.945312 C 924.175781 326.757812 924.300781 326.507812 924.332031 326.238281 Z M 925.183594 320.371094 " fill-opacity="1" fill-rule="nonzero"/><path fill="#ffffff" d="M 818.210938 200.96875 L 819.0625 206.832031 C 819.101562 207.105469 819.230469 207.355469 819.425781 207.550781 C 819.613281 207.746094 819.859375 207.871094 820.128906 207.902344 L 826 208.753906 L 820.128906 209.605469 C 819.859375 209.648438 819.609375 209.777344 819.414062 209.96875 C 819.214844 210.15625 819.09375 210.40625 819.0625 210.675781 L 818.210938 216.542969 L 817.359375 210.675781 C 817.316406 210.40625 817.1875 210.152344 816.996094 209.960938 C 816.808594 209.761719 816.558594 209.636719 816.289062 209.605469 L 810.421875 208.753906 L 816.289062 207.902344 C 816.558594 207.863281 816.808594 207.734375 817.003906 207.539062 C 817.203125 207.351562 817.328125 207.105469 817.359375 206.832031 Z M 818.210938 200.96875 " fill-opacity="1" fill-rule="nonzero"/><path fill="#ffffff" d="M 846.25 136.59375 L 847.808594 147.152344 C 847.878906 147.640625 848.101562 148.089844 848.453125 148.441406 C 848.800781 148.78125 849.246094 149.007812 849.730469 149.082031 L 860.269531 150.609375 L 849.710938 152.167969 C 848.710938 152.3125 847.925781 153.09375 847.777344 154.085938 L 846.25 164.625 L 844.691406 154.066406 C 844.625 153.578125 844.398438 153.128906 844.050781 152.78125 C 843.699219 152.4375 843.253906 152.210938 842.769531 152.136719 L 832.230469 150.609375 L 842.792969 149.050781 C 843.789062 148.90625 844.574219 148.125 844.722656 147.132812 Z M 846.25 136.59375 " fill-opacity="1" fill-rule="nonzero"/><path fill="#ffffff" d="M 845.730469 27.570312 C 845.730469 27.984375 845.652344 28.378906 845.496094 28.761719 C 845.335938 29.144531 845.109375 29.480469 844.820312 29.773438 C 844.527344 30.066406 844.191406 30.289062 843.808594 30.449219 C 843.425781 30.605469 843.027344 30.683594 842.617188 30.683594 C 842.203125 30.683594 841.804688 30.605469 841.421875 30.449219 C 841.042969 30.289062 840.703125 30.066406 840.414062 29.773438 C 840.121094 29.480469 839.894531 29.144531 839.738281 28.761719 C 839.578125 28.378906 839.5 27.984375 839.5 27.570312 C 839.5 27.15625 839.578125 26.757812 839.738281 26.378906 C 839.894531 25.996094 840.121094 25.660156 840.414062 25.367188 C 840.703125 25.074219 841.042969 24.851562 841.421875 24.691406 C 841.804688 24.535156 842.203125 24.457031 842.617188 24.457031 C 843.027344 24.457031 843.425781 24.535156 843.808594 24.691406 C 844.191406 24.851562 844.527344 25.074219 844.820312 25.367188 C 845.109375 25.660156 845.335938 25.996094 845.496094 26.378906 C 845.652344 26.757812 845.730469 27.15625 845.730469 27.570312 Z M 845.730469 27.570312 " fill-opacity="1" fill-rule="nonzero"/><path fill="#ffffff" d="M 798.996094 48.335938 C 798.996094 48.613281 798.941406 48.875 798.835938 49.132812 C 798.730469 49.386719 798.582031 49.609375 798.386719 49.804688 C 798.191406 50 797.96875 50.148438 797.714844 50.253906 C 797.460938 50.359375 797.195312 50.414062 796.917969 50.414062 C 796.644531 50.414062 796.378906 50.359375 796.125 50.253906 C 795.871094 50.148438 795.644531 50 795.449219 49.804688 C 795.253906 49.609375 795.105469 49.386719 795 49.132812 C 794.894531 48.875 794.839844 48.613281 794.839844 48.335938 C 794.839844 48.0625 794.894531 47.796875 795 47.542969 C 795.105469 47.289062 795.253906 47.0625 795.449219 46.867188 C 795.644531 46.671875 795.871094 46.523438 796.125 46.417969 C 796.378906 46.3125 796.644531 46.257812 796.917969 46.257812 C 797.195312 46.257812 797.460938 46.3125 797.714844 46.417969 C 797.96875 46.523438 798.191406 46.671875 798.386719 46.867188 C 798.582031 47.0625 798.730469 47.289062 798.835938 47.542969 C 798.941406 47.796875 798.996094 48.0625 798.996094 48.335938 Z M 798.996094 48.335938 " fill-opacity="1" fill-rule="nonzero"/><g clip-path="url(#df77cf7e12)"><path fill="#ffffff" d="M 963.089844 341.140625 C 963.089844 341.414062 963.035156 341.679688 962.929688 341.933594 C 962.824219 342.1875 962.675781 342.414062 962.480469 342.605469 C 962.285156 342.800781 962.0625 342.953125 961.808594 343.058594 C 961.554688 343.164062 961.289062 343.214844 961.011719 343.214844 C 960.738281 343.214844 960.472656 343.164062 960.21875 343.058594 C 959.964844 342.953125 959.738281 342.800781 959.542969 342.605469 C 959.347656 342.414062 959.199219 342.1875 959.09375 341.933594 C 958.988281 341.679688 958.933594 341.414062 958.933594 341.140625 C 958.933594 340.863281 958.988281 340.597656 959.09375 340.34375 C 959.199219 340.089844 959.347656 339.867188 959.542969 339.671875 C 959.738281 339.476562 959.964844 339.324219 960.21875 339.21875 C 960.472656 339.113281 960.738281 339.0625 961.011719 339.0625 C 961.289062 339.0625 961.554688 339.113281 961.808594 339.21875 C 962.0625 339.324219 962.285156 339.476562 962.480469 339.671875 C 962.675781 339.867188 962.824219 340.089844 962.929688 340.34375 C 963.035156 340.597656 963.089844 340.863281 963.089844 341.140625 Z M 963.089844 341.140625 " fill-opacity="1" fill-rule="nonzero"/></g><path fill="#ffffff" d="M 907.007812 54.566406 C 907.007812 54.839844 906.980469 55.109375 906.925781 55.375 C 906.875 55.644531 906.796875 55.902344 906.691406 56.15625 C 906.585938 56.40625 906.457031 56.648438 906.308594 56.875 C 906.15625 57.101562 905.984375 57.308594 905.789062 57.503906 C 905.597656 57.695312 905.386719 57.867188 905.160156 58.019531 C 904.933594 58.171875 904.695312 58.296875 904.441406 58.402344 C 904.191406 58.507812 903.929688 58.585938 903.664062 58.640625 C 903.394531 58.691406 903.125 58.71875 902.851562 58.71875 C 902.578125 58.71875 902.308594 58.691406 902.042969 58.640625 C 901.773438 58.585938 901.515625 58.507812 901.261719 58.402344 C 901.011719 58.296875 900.769531 58.171875 900.542969 58.019531 C 900.316406 57.867188 900.109375 57.695312 899.914062 57.503906 C 899.722656 57.308594 899.550781 57.101562 899.398438 56.875 C 899.246094 56.648438 899.117188 56.40625 899.015625 56.15625 C 898.910156 55.902344 898.832031 55.644531 898.777344 55.375 C 898.726562 55.109375 898.699219 54.839844 898.699219 54.566406 C 898.699219 54.292969 898.726562 54.023438 898.777344 53.753906 C 898.832031 53.488281 898.910156 53.230469 899.015625 52.976562 C 899.117188 52.726562 899.246094 52.484375 899.398438 52.257812 C 899.550781 52.03125 899.722656 51.820312 899.914062 51.628906 C 900.109375 51.4375 900.316406 51.265625 900.542969 51.113281 C 900.769531 50.960938 901.011719 50.832031 901.261719 50.730469 C 901.515625 50.625 901.773438 50.546875 902.042969 50.492188 C 902.308594 50.441406 902.578125 50.414062 902.851562 50.414062 C 903.125 50.414062 903.394531 50.441406 903.664062 50.492188 C 903.929688 50.546875 904.191406 50.625 904.441406 50.730469 C 904.695312 50.832031 904.933594 50.960938 905.160156 51.113281 C 905.386719 51.265625 905.597656 51.4375 905.789062 51.628906 C 905.984375 51.820312 906.15625 52.03125 906.308594 52.257812 C 906.457031 52.484375 906.585938 52.726562 906.691406 52.976562 C 906.796875 53.230469 906.875 53.488281 906.925781 53.753906 C 906.980469 54.023438 907.007812 54.292969 907.007812 54.566406 Z M 907.007812 54.566406 " fill-opacity="1" fill-rule="nonzero"/><path fill="#ffffff" d="M 450.035156 251.84375 C 450.035156 252.257812 449.957031 252.65625 449.800781 253.035156 C 449.640625 253.417969 449.417969 253.753906 449.125 254.046875 C 448.832031 254.339844 448.496094 254.5625 448.113281 254.722656 C 447.730469 254.878906 447.335938 254.960938 446.921875 254.960938 C 446.507812 254.960938 446.109375 254.878906 445.730469 254.722656 C 445.347656 254.5625 445.011719 254.339844 444.71875 254.046875 C 444.425781 253.753906 444.199219 253.417969 444.042969 253.035156 C 443.882812 252.65625 443.804688 252.257812 443.804688 251.84375 C 443.804688 251.429688 443.882812 251.035156 444.042969 250.652344 C 444.199219 250.269531 444.425781 249.933594 444.71875 249.640625 C 445.011719 249.351562 445.347656 249.125 445.730469 248.964844 C 446.109375 248.808594 446.507812 248.730469 446.921875 248.730469 C 447.335938 248.730469 447.730469 248.808594 448.113281 248.964844 C 448.496094 249.125 448.832031 249.351562 449.125 249.640625 C 449.417969 249.933594 449.640625 250.269531 449.800781 250.652344 C 449.957031 251.035156 450.035156 251.429688 450.035156 251.84375 Z M 450.035156 251.84375 " fill-opacity="1" fill-rule="nonzero"/><path fill="#ffffff" d="M 690.984375 214.539062 C 690.984375 214.953125 690.90625 215.347656 690.746094 215.730469 C 690.589844 216.113281 690.363281 216.449219 690.070312 216.742188 C 689.78125 217.03125 689.441406 217.257812 689.0625 217.414062 C 688.679688 217.574219 688.28125 217.652344 687.867188 217.652344 C 687.457031 217.652344 687.058594 217.574219 686.675781 217.414062 C 686.292969 217.257812 685.957031 217.03125 685.664062 216.742188 C 685.375 216.449219 685.148438 216.113281 684.992188 215.730469 C 684.832031 215.347656 684.753906 214.953125 684.753906 214.539062 C 684.753906 214.125 684.832031 213.726562 684.992188 213.347656 C 685.148438 212.964844 685.375 212.628906 685.664062 212.335938 C 685.957031 212.042969 686.292969 211.820312 686.675781 211.660156 C 687.058594 211.503906 687.457031 211.421875 687.867188 211.421875 C 688.28125 211.421875 688.679688 211.503906 689.0625 211.660156 C 689.441406 211.820312 689.78125 212.042969 690.070312 212.335938 C 690.363281 212.628906 690.589844 212.964844 690.746094 213.347656 C 690.90625 213.726562 690.984375 214.125 690.984375 214.539062 Z M 690.984375 214.539062 " fill-opacity="1" fill-rule="nonzero"/><g clip-path="url(#b077207918)"><path fill="#ffffff" d="M 444.84375 173.972656 C 444.84375 174.246094 444.792969 174.511719 444.6875 174.765625 C 444.582031 175.019531 444.429688 175.246094 444.234375 175.441406 C 444.039062 175.632812 443.816406 175.785156 443.5625 175.890625 C 443.308594 175.996094 443.042969 176.046875 442.765625 176.046875 C 442.492188 176.046875 442.226562 175.996094 441.972656 175.890625 C 441.71875 175.785156 441.492188 175.632812 441.296875 175.441406 C 441.101562 175.246094 440.953125 175.019531 440.847656 174.765625 C 440.742188 174.511719 440.691406 174.246094 440.691406 173.972656 C 440.691406 173.695312 440.742188 173.429688 440.847656 173.175781 C 440.953125 172.921875 441.101562 172.699219 441.296875 172.503906 C 441.492188 172.308594 441.71875 172.160156 441.972656 172.054688 C 442.226562 171.949219 442.492188 171.894531 442.765625 171.894531 C 443.042969 171.894531 443.308594 171.949219 443.5625 172.054688 C 443.816406 172.160156 444.039062 172.308594 444.234375 172.503906 C 444.429688 172.699219 444.582031 172.921875 444.6875 173.175781 C 444.792969 173.429688 444.84375 173.695312 444.84375 173.972656 Z M 444.84375 173.972656 " fill-opacity="1" fill-rule="nonzero"/></g><g clip-path="url(#38799a2802)"><path fill="#ffffff" d="M 1419.808594 264.867188 L 1412.371094 265.90625 C 1412.03125 265.957031 1411.714844 266.117188 1411.46875 266.363281 C 1411.226562 266.609375 1411.066406 266.925781 1411.011719 267.265625 L 1409.972656 274.691406 L 1408.9375 267.253906 C 1408.886719 266.914062 1408.722656 266.597656 1408.480469 266.351562 C 1408.230469 266.109375 1407.917969 265.949219 1407.574219 265.894531 L 1400.152344 264.855469 L 1407.585938 263.816406 C 1407.898438 263.734375 1408.179688 263.558594 1408.386719 263.308594 C 1408.628906 263.0625 1408.789062 262.746094 1408.84375 262.40625 L 1409.882812 254.980469 L 1410.917969 262.414062 C 1411.003906 262.773438 1411.210938 263.085938 1411.5 263.308594 C 1411.746094 263.550781 1412.0625 263.710938 1412.402344 263.765625 Z M 1419.808594 264.867188 " fill-opacity="1" fill-rule="nonzero"/></g><path fill="#ffffff" d="M 1313.898438 533.855469 L 1304.117188 535.277344 C 1303.671875 535.34375 1303.253906 535.550781 1302.933594 535.871094 C 1302.617188 536.191406 1302.40625 536.605469 1302.332031 537.054688 L 1300.921875 546.839844 L 1299.5 537.054688 C 1299.375 536.128906 1298.648438 535.394531 1297.722656 535.269531 L 1287.941406 533.855469 L 1297.722656 532.433594 C 1298.171875 532.371094 1298.585938 532.164062 1298.90625 531.839844 C 1299.226562 531.519531 1299.4375 531.105469 1299.507812 530.65625 L 1300.921875 520.875 L 1302.34375 530.65625 C 1302.464844 531.585938 1303.191406 532.316406 1304.117188 532.445312 Z M 1313.898438 533.855469 " fill-opacity="1" fill-rule="nonzero"/><path fill="#ffffff" d="M 1121.8125 139.199219 L 1115.945312 140.050781 C 1115.675781 140.09375 1115.425781 140.222656 1115.230469 140.414062 C 1115.03125 140.601562 1114.910156 140.851562 1114.878906 141.121094 L 1114.027344 146.988281 L 1113.175781 141.121094 C 1113.132812 140.851562 1113.003906 140.597656 1112.8125 140.40625 C 1112.625 140.207031 1112.375 140.082031 1112.105469 140.050781 L 1106.238281 139.199219 L 1112.105469 138.347656 C 1112.375 138.308594 1112.628906 138.179688 1112.820312 137.984375 C 1113.019531 137.796875 1113.144531 137.546875 1113.175781 137.277344 L 1114.027344 131.410156 L 1114.878906 137.277344 C 1114.917969 137.550781 1115.046875 137.800781 1115.242188 137.996094 C 1115.425781 138.191406 1115.675781 138.316406 1115.945312 138.347656 Z M 1121.8125 139.199219 " fill-opacity="1" fill-rule="nonzero"/><path fill="#ffffff" d="M 1380.351562 178.144531 C 1379.9375 178.144531 1379.542969 178.066406 1379.160156 177.910156 C 1378.777344 177.75 1378.441406 177.527344 1378.148438 177.234375 C 1377.855469 176.941406 1377.632812 176.605469 1377.472656 176.222656 C 1377.316406 175.839844 1377.238281 175.445312 1377.238281 175.03125 C 1377.238281 174.617188 1377.316406 174.21875 1377.472656 173.839844 C 1377.632812 173.457031 1377.855469 173.121094 1378.148438 172.828125 C 1378.441406 172.535156 1378.777344 172.308594 1379.160156 172.152344 C 1379.542969 171.992188 1379.9375 171.914062 1380.351562 171.914062 C 1380.765625 171.914062 1381.160156 171.992188 1381.542969 172.152344 C 1381.925781 172.308594 1382.261719 172.535156 1382.554688 172.828125 C 1382.847656 173.121094 1383.070312 173.457031 1383.230469 173.839844 C 1383.386719 174.21875 1383.464844 174.617188 1383.464844 175.03125 C 1383.464844 175.445312 1383.386719 175.839844 1383.230469 176.222656 C 1383.070312 176.605469 1382.847656 176.941406 1382.554688 177.234375 C 1382.261719 177.527344 1381.925781 177.75 1381.542969 177.910156 C 1381.160156 178.066406 1380.765625 178.144531 1380.351562 178.144531 Z M 1380.351562 178.144531 " fill-opacity="1" fill-rule="nonzero"/><path fill="#ffffff" d="M 1258.871094 297.0625 L 1254.5625 297.683594 C 1254.367188 297.722656 1254.1875 297.8125 1254.042969 297.945312 C 1253.90625 298.09375 1253.816406 298.277344 1253.78125 298.476562 L 1253.160156 302.773438 L 1252.535156 298.464844 C 1252.5 298.269531 1252.410156 298.089844 1252.277344 297.945312 C 1252.128906 297.808594 1251.945312 297.71875 1251.746094 297.6875 L 1247.449219 297.0625 L 1251.757812 296.4375 C 1251.953125 296.402344 1252.132812 296.3125 1252.277344 296.179688 C 1252.414062 296.03125 1252.503906 295.847656 1252.535156 295.648438 L 1253.160156 291.351562 L 1253.78125 295.660156 C 1253.816406 295.855469 1253.90625 296.035156 1254.042969 296.179688 C 1254.1875 296.316406 1254.371094 296.40625 1254.570312 296.4375 Z M 1258.871094 297.0625 " fill-opacity="1" fill-rule="nonzero"/><path fill="#ffffff" d="M 1309.746094 358.339844 L 1305.4375 358.960938 C 1305.242188 358.996094 1305.0625 359.085938 1304.917969 359.222656 C 1304.78125 359.367188 1304.691406 359.550781 1304.660156 359.75 L 1304.035156 364.050781 L 1303.414062 359.738281 C 1303.378906 359.546875 1303.289062 359.367188 1303.152344 359.222656 C 1303.007812 359.085938 1302.820312 358.996094 1302.625 358.960938 L 1298.324219 358.339844 L 1302.632812 357.714844 C 1302.828125 357.679688 1303.007812 357.589844 1303.152344 357.457031 C 1303.289062 357.308594 1303.378906 357.125 1303.414062 356.925781 L 1304.035156 352.625 L 1304.660156 356.9375 C 1304.695312 357.128906 1304.785156 357.308594 1304.917969 357.457031 C 1305.066406 357.589844 1305.25 357.679688 1305.449219 357.714844 Z M 1309.746094 358.339844 " fill-opacity="1" fill-rule="nonzero"/><path fill="#ffffff" d="M 1220.453125 118.429688 L 1212.238281 119.621094 C 1211.84375 119.664062 1211.480469 119.839844 1211.199219 120.121094 C 1210.921875 120.402344 1210.742188 120.765625 1210.691406 121.160156 L 1209.550781 129.332031 L 1208.355469 121.117188 C 1208.3125 120.726562 1208.136719 120.359375 1207.859375 120.078125 C 1207.578125 119.800781 1207.210938 119.621094 1206.820312 119.570312 L 1198.648438 118.429688 L 1206.859375 117.234375 C 1207.253906 117.191406 1207.621094 117.015625 1207.898438 116.734375 C 1208.179688 116.457031 1208.355469 116.089844 1208.40625 115.695312 L 1209.550781 107.523438 L 1210.742188 115.738281 C 1210.785156 116.132812 1210.960938 116.5 1211.242188 116.777344 C 1211.523438 117.054688 1211.886719 117.234375 1212.28125 117.285156 Z M 1220.453125 118.429688 " fill-opacity="1" fill-rule="nonzero"/><path fill="#ffffff" d="M 1139.464844 46.765625 L 1135.15625 47.390625 C 1134.960938 47.425781 1134.78125 47.515625 1134.636719 47.648438 C 1134.5 47.796875 1134.410156 47.980469 1134.375 48.179688 L 1133.753906 52.480469 L 1133.128906 48.167969 C 1133.09375 47.976562 1133.003906 47.796875 1132.871094 47.648438 C 1132.722656 47.515625 1132.539062 47.421875 1132.339844 47.390625 L 1128.042969 46.765625 L 1132.351562 46.144531 C 1132.546875 46.109375 1132.726562 46.019531 1132.871094 45.882812 C 1133.007812 45.738281 1133.097656 45.554688 1133.128906 45.355469 L 1133.753906 41.054688 L 1134.375 45.367188 C 1134.410156 45.558594 1134.503906 45.738281 1134.636719 45.882812 C 1134.785156 46.019531 1134.96875 46.109375 1135.164062 46.144531 Z M 1139.464844 46.765625 " fill-opacity="1" fill-rule="nonzero"/><path fill="#ffffff" d="M 1255.753906 451.808594 L 1251.445312 452.433594 C 1251.25 452.46875 1251.070312 452.558594 1250.925781 452.691406 C 1250.789062 452.839844 1250.699219 453.023438 1250.667969 453.222656 L 1250.042969 457.519531 L 1249.421875 453.222656 C 1249.371094 452.808594 1249.046875 452.480469 1248.632812 452.433594 L 1244.332031 451.808594 L 1248.640625 451.1875 C 1248.835938 451.152344 1249.015625 451.058594 1249.160156 450.925781 C 1249.296875 450.777344 1249.386719 450.59375 1249.421875 450.398438 L 1250.042969 446.097656 L 1250.667969 450.398438 C 1250.71875 450.808594 1251.042969 451.136719 1251.457031 451.1875 Z M 1255.753906 451.808594 " fill-opacity="1" fill-rule="nonzero"/><path fill="#ffffff" d="M 1139.464844 107.003906 L 1135.164062 107.628906 C 1134.753906 107.675781 1134.425781 108.003906 1134.375 108.417969 L 1133.753906 112.714844 L 1133.128906 108.417969 C 1133.082031 108.003906 1132.753906 107.675781 1132.339844 107.628906 L 1128.042969 107.003906 L 1132.351562 106.382812 C 1132.546875 106.347656 1132.726562 106.253906 1132.871094 106.121094 C 1133.011719 105.976562 1133.101562 105.792969 1133.128906 105.59375 L 1133.753906 101.292969 L 1134.375 105.59375 C 1134.425781 106.003906 1134.753906 106.332031 1135.164062 106.382812 Z M 1139.464844 107.003906 " fill-opacity="1" fill-rule="nonzero"/><g clip-path="url(#4431ddea69)"><path fill="#ffffff" d="M 1129.082031 572.28125 L 1124.773438 572.90625 C 1124.574219 572.9375 1124.390625 573.03125 1124.253906 573.175781 C 1124.117188 573.320312 1124.027344 573.5 1123.992188 573.695312 L 1123.371094 577.996094 L 1122.746094 573.695312 C 1122.699219 573.28125 1122.371094 572.957031 1121.957031 572.90625 L 1117.660156 572.28125 L 1121.96875 571.660156 C 1122.164062 571.625 1122.34375 571.535156 1122.488281 571.398438 C 1122.625 571.253906 1122.714844 571.070312 1122.746094 570.871094 L 1123.371094 566.570312 L 1123.992188 570.882812 C 1124.027344 571.074219 1124.117188 571.253906 1124.253906 571.398438 C 1124.402344 571.535156 1124.585938 571.625 1124.78125 571.660156 Z M 1129.082031 572.28125 " fill-opacity="1" fill-rule="nonzero"/></g><path fill="#ffffff" d="M 1336.742188 263.828125 L 1330.875 264.679688 C 1330.605469 264.722656 1330.355469 264.847656 1330.160156 265.042969 C 1329.960938 265.230469 1329.839844 265.480469 1329.808594 265.75 L 1328.957031 271.617188 L 1328.105469 265.75 C 1328.0625 265.476562 1327.933594 265.226562 1327.742188 265.03125 C 1327.554688 264.835938 1327.304688 264.710938 1327.035156 264.679688 L 1321.167969 263.828125 L 1327.035156 262.976562 C 1327.304688 262.933594 1327.558594 262.808594 1327.75 262.613281 C 1327.949219 262.425781 1328.074219 262.175781 1328.105469 261.90625 L 1328.957031 256.039062 L 1329.808594 261.90625 C 1329.847656 262.179688 1329.976562 262.429688 1330.171875 262.625 C 1330.355469 262.820312 1330.605469 262.945312 1330.875 262.976562 Z M 1336.742188 263.828125 " fill-opacity="1" fill-rule="nonzero"/><path fill="#ffffff" d="M 1118.699219 503.738281 L 1112.832031 504.589844 C 1112.5625 504.628906 1112.308594 504.757812 1112.113281 504.953125 C 1111.917969 505.140625 1111.792969 505.390625 1111.761719 505.660156 L 1110.910156 511.527344 L 1110.058594 505.660156 C 1110.019531 505.386719 1109.890625 505.136719 1109.695312 504.941406 C 1109.507812 504.746094 1109.261719 504.621094 1108.988281 504.589844 L 1103.125 503.738281 L 1108.988281 502.886719 C 1109.261719 502.84375 1109.511719 502.714844 1109.707031 502.523438 C 1109.902344 502.335938 1110.027344 502.085938 1110.058594 501.816406 L 1110.910156 495.949219 L 1111.761719 501.816406 C 1111.804688 502.085938 1111.929688 502.339844 1112.125 502.53125 C 1112.3125 502.730469 1112.5625 502.855469 1112.832031 502.886719 Z M 1118.699219 503.738281 " fill-opacity="1" fill-rule="nonzero"/><path fill="#ffffff" d="M 1238.101562 396.765625 L 1232.238281 397.617188 C 1231.964844 397.65625 1231.714844 397.785156 1231.519531 397.980469 C 1231.324219 398.167969 1231.199219 398.417969 1231.167969 398.6875 L 1230.316406 404.554688 L 1229.464844 398.6875 C 1229.421875 398.414062 1229.296875 398.164062 1229.101562 397.96875 C 1228.914062 397.773438 1228.664062 397.648438 1228.394531 397.617188 L 1222.527344 396.765625 L 1228.394531 395.914062 C 1228.667969 395.871094 1228.917969 395.742188 1229.113281 395.550781 C 1229.308594 395.363281 1229.433594 395.113281 1229.464844 394.84375 L 1230.316406 388.976562 L 1231.167969 394.84375 C 1231.210938 395.113281 1231.335938 395.367188 1231.53125 395.558594 C 1231.71875 395.757812 1231.96875 395.882812 1232.238281 395.914062 Z M 1238.101562 396.765625 " fill-opacity="1" fill-rule="nonzero"/><path fill="#ffffff" d="M 1302.476562 424.804688 L 1291.917969 426.363281 C 1291.429688 426.433594 1290.980469 426.660156 1290.632812 427.007812 C 1290.289062 427.355469 1290.066406 427.800781 1289.988281 428.285156 L 1288.460938 438.828125 L 1286.902344 428.265625 C 1286.757812 427.269531 1285.980469 426.484375 1284.984375 426.332031 L 1274.445312 424.804688 L 1285.003906 423.25 C 1285.492188 423.179688 1285.945312 422.953125 1286.292969 422.605469 C 1286.632812 422.253906 1286.859375 421.808594 1286.933594 421.328125 L 1288.460938 410.785156 L 1290.019531 421.347656 C 1290.164062 422.34375 1290.945312 423.128906 1291.941406 423.28125 Z M 1302.476562 424.804688 " fill-opacity="1" fill-rule="nonzero"/><path fill="#ffffff" d="M 1411.5 424.285156 C 1411.085938 424.285156 1410.691406 424.207031 1410.308594 424.050781 C 1409.925781 423.890625 1409.589844 423.667969 1409.296875 423.375 C 1409.007812 423.082031 1408.78125 422.746094 1408.621094 422.363281 C 1408.464844 421.980469 1408.386719 421.585938 1408.386719 421.171875 C 1408.386719 420.757812 1408.464844 420.359375 1408.621094 419.980469 C 1408.78125 419.597656 1409.007812 419.261719 1409.296875 418.96875 C 1409.589844 418.675781 1409.925781 418.449219 1410.308594 418.292969 C 1410.691406 418.132812 1411.085938 418.054688 1411.5 418.054688 C 1411.914062 418.054688 1412.3125 418.132812 1412.691406 418.292969 C 1413.074219 418.449219 1413.410156 418.675781 1413.703125 418.96875 C 1413.996094 419.261719 1414.21875 419.597656 1414.378906 419.980469 C 1414.535156 420.359375 1414.617188 420.757812 1414.617188 421.171875 C 1414.617188 421.585938 1414.535156 421.980469 1414.378906 422.363281 C 1414.21875 422.746094 1413.996094 423.082031 1413.703125 423.375 C 1413.410156 423.667969 1413.074219 423.890625 1412.691406 424.050781 C 1412.3125 424.207031 1411.914062 424.285156 1411.5 424.285156 Z M 1411.5 424.285156 " fill-opacity="1" fill-rule="nonzero"/><path fill="#ffffff" d="M 1390.734375 377.550781 C 1390.460938 377.550781 1390.195312 377.5 1389.941406 377.394531 C 1389.683594 377.289062 1389.460938 377.136719 1389.265625 376.941406 C 1389.070312 376.75 1388.921875 376.523438 1388.816406 376.269531 C 1388.710938 376.015625 1388.65625 375.75 1388.65625 375.472656 C 1388.65625 375.199219 1388.710938 374.933594 1388.816406 374.679688 C 1388.921875 374.425781 1389.070312 374.199219 1389.265625 374.003906 C 1389.460938 373.8125 1389.683594 373.660156 1389.941406 373.554688 C 1390.195312 373.449219 1390.460938 373.398438 1390.734375 373.398438 C 1391.011719 373.398438 1391.273438 373.449219 1391.53125 373.554688 C 1391.785156 373.660156 1392.007812 373.8125 1392.203125 374.003906 C 1392.398438 374.199219 1392.546875 374.425781 1392.652344 374.679688 C 1392.757812 374.933594 1392.8125 375.199219 1392.8125 375.472656 C 1392.8125 375.75 1392.757812 376.015625 1392.652344 376.269531 C 1392.546875 376.523438 1392.398438 376.75 1392.203125 376.941406 C 1392.007812 377.136719 1391.785156 377.289062 1391.53125 377.394531 C 1391.273438 377.5 1391.011719 377.550781 1390.734375 377.550781 Z M 1390.734375 377.550781 " fill-opacity="1" fill-rule="nonzero"/><g clip-path="url(#41b68c5b19)"><path fill="#ffffff" d="M 1097.933594 541.644531 C 1097.65625 541.644531 1097.390625 541.59375 1097.136719 541.488281 C 1096.882812 541.382812 1096.660156 541.230469 1096.464844 541.035156 C 1096.269531 540.84375 1096.117188 540.617188 1096.011719 540.363281 C 1095.90625 540.109375 1095.855469 539.84375 1095.855469 539.566406 C 1095.855469 539.292969 1095.90625 539.027344 1096.011719 538.773438 C 1096.117188 538.519531 1096.269531 538.292969 1096.464844 538.097656 C 1096.660156 537.90625 1096.882812 537.753906 1097.136719 537.648438 C 1097.390625 537.542969 1097.65625 537.492188 1097.933594 537.492188 C 1098.207031 537.492188 1098.472656 537.542969 1098.726562 537.648438 C 1098.980469 537.753906 1099.207031 537.90625 1099.398438 538.097656 C 1099.59375 538.292969 1099.746094 538.519531 1099.851562 538.773438 C 1099.957031 539.027344 1100.007812 539.292969 1100.007812 539.566406 C 1100.007812 539.84375 1099.957031 540.109375 1099.851562 540.363281 C 1099.746094 540.617188 1099.59375 540.84375 1099.398438 541.035156 C 1099.207031 541.230469 1098.980469 541.382812 1098.726562 541.488281 C 1098.472656 541.59375 1098.207031 541.644531 1097.933594 541.644531 Z M 1097.933594 541.644531 " fill-opacity="1" fill-rule="nonzero"/></g><path fill="#ffffff" d="M 1384.503906 485.5625 C 1384.230469 485.5625 1383.960938 485.535156 1383.695312 485.484375 C 1383.425781 485.429688 1383.167969 485.351562 1382.914062 485.246094 C 1382.664062 485.140625 1382.425781 485.015625 1382.199219 484.863281 C 1381.96875 484.710938 1381.761719 484.539062 1381.566406 484.347656 C 1381.375 484.152344 1381.203125 483.941406 1381.050781 483.714844 C 1380.898438 483.488281 1380.773438 483.25 1380.667969 482.996094 C 1380.5625 482.746094 1380.484375 482.484375 1380.429688 482.21875 C 1380.378906 481.953125 1380.351562 481.679688 1380.351562 481.410156 C 1380.351562 481.136719 1380.378906 480.867188 1380.429688 480.597656 C 1380.484375 480.332031 1380.5625 480.070312 1380.667969 479.820312 C 1380.773438 479.566406 1380.898438 479.328125 1381.050781 479.101562 C 1381.203125 478.875 1381.375 478.664062 1381.566406 478.472656 C 1381.761719 478.277344 1381.96875 478.105469 1382.199219 477.953125 C 1382.425781 477.800781 1382.664062 477.675781 1382.914062 477.570312 C 1383.167969 477.464844 1383.425781 477.386719 1383.695312 477.332031 C 1383.960938 477.28125 1384.230469 477.253906 1384.503906 477.253906 C 1384.777344 477.253906 1385.046875 477.28125 1385.316406 477.332031 C 1385.582031 477.386719 1385.84375 477.464844 1386.09375 477.570312 C 1386.347656 477.675781 1386.585938 477.800781 1386.8125 477.953125 C 1387.039062 478.105469 1387.25 478.277344 1387.441406 478.472656 C 1387.632812 478.664062 1387.804688 478.875 1387.957031 479.101562 C 1388.109375 479.328125 1388.238281 479.566406 1388.34375 479.820312 C 1388.445312 480.070312 1388.523438 480.332031 1388.578125 480.597656 C 1388.632812 480.867188 1388.65625 481.136719 1388.65625 481.410156 C 1388.65625 481.679688 1388.632812 481.953125 1388.578125 482.21875 C 1388.523438 482.484375 1388.445312 482.746094 1388.34375 482.996094 C 1388.238281 483.25 1388.109375 483.488281 1387.957031 483.714844 C 1387.804688 483.941406 1387.632812 484.152344 1387.441406 484.347656 C 1387.25 484.539062 1387.039062 484.710938 1386.8125 484.863281 C 1386.585938 485.015625 1386.347656 485.140625 1386.09375 485.246094 C 1385.84375 485.351562 1385.582031 485.429688 1385.316406 485.484375 C 1385.046875 485.535156 1384.777344 485.5625 1384.503906 485.5625 Z M 1384.503906 485.5625 " fill-opacity="1" fill-rule="nonzero"/><path fill="#ffffff" d="M 1187.226562 28.59375 C 1186.8125 28.59375 1186.414062 28.511719 1186.035156 28.355469 C 1185.652344 28.195312 1185.316406 27.972656 1185.023438 27.679688 C 1184.730469 27.386719 1184.507812 27.050781 1184.347656 26.667969 C 1184.191406 26.289062 1184.113281 25.890625 1184.113281 25.476562 C 1184.113281 25.0625 1184.191406 24.667969 1184.347656 24.285156 C 1184.507812 23.902344 1184.730469 23.566406 1185.023438 23.273438 C 1185.316406 22.980469 1185.652344 22.757812 1186.035156 22.597656 C 1186.414062 22.441406 1186.8125 22.359375 1187.226562 22.359375 C 1187.640625 22.359375 1188.035156 22.441406 1188.417969 22.597656 C 1188.800781 22.757812 1189.136719 22.980469 1189.429688 23.273438 C 1189.722656 23.566406 1189.945312 23.902344 1190.105469 24.285156 C 1190.261719 24.667969 1190.339844 25.0625 1190.339844 25.476562 C 1190.339844 25.890625 1190.261719 26.289062 1190.105469 26.667969 C 1189.945312 27.050781 1189.722656 27.386719 1189.429688 27.679688 C 1189.136719 27.972656 1188.800781 28.195312 1188.417969 28.355469 C 1188.035156 28.511719 1187.640625 28.59375 1187.226562 28.59375 Z M 1187.226562 28.59375 " fill-opacity="1" fill-rule="nonzero"/><path fill="#ffffff" d="M 1224.53125 269.539062 C 1224.121094 269.539062 1223.722656 269.460938 1223.339844 269.304688 C 1222.960938 269.144531 1222.621094 268.917969 1222.332031 268.628906 C 1222.039062 268.335938 1221.8125 268 1221.65625 267.617188 C 1221.496094 267.234375 1221.417969 266.835938 1221.417969 266.425781 C 1221.417969 266.011719 1221.496094 265.613281 1221.65625 265.230469 C 1221.8125 264.851562 1222.039062 264.511719 1222.332031 264.222656 C 1222.621094 263.929688 1222.960938 263.703125 1223.339844 263.546875 C 1223.722656 263.386719 1224.121094 263.308594 1224.53125 263.308594 C 1224.945312 263.308594 1225.34375 263.386719 1225.726562 263.546875 C 1226.105469 263.703125 1226.441406 263.929688 1226.734375 264.222656 C 1227.027344 264.511719 1227.253906 264.851562 1227.410156 265.230469 C 1227.570312 265.613281 1227.648438 266.011719 1227.648438 266.425781 C 1227.648438 266.835938 1227.570312 267.234375 1227.410156 267.617188 C 1227.253906 268 1227.027344 268.335938 1226.734375 268.628906 C 1226.441406 268.917969 1226.105469 269.144531 1225.726562 269.304688 C 1225.34375 269.460938 1224.945312 269.539062 1224.53125 269.539062 Z M 1224.53125 269.539062 " fill-opacity="1" fill-rule="nonzero"/><g clip-path="url(#790a4d1b52)"><path fill="#ffffff" d="M 1265.097656 23.398438 C 1264.824219 23.398438 1264.558594 23.347656 1264.304688 23.242188 C 1264.050781 23.136719 1263.824219 22.984375 1263.632812 22.792969 C 1263.4375 22.597656 1263.285156 22.371094 1263.179688 22.117188 C 1263.074219 21.863281 1263.023438 21.597656 1263.023438 21.324219 C 1263.023438 21.046875 1263.074219 20.78125 1263.179688 20.527344 C 1263.285156 20.273438 1263.4375 20.046875 1263.632812 19.855469 C 1263.824219 19.660156 1264.050781 19.507812 1264.304688 19.402344 C 1264.558594 19.296875 1264.824219 19.246094 1265.097656 19.246094 C 1265.375 19.246094 1265.640625 19.296875 1265.894531 19.402344 C 1266.148438 19.507812 1266.375 19.660156 1266.566406 19.855469 C 1266.761719 20.046875 1266.914062 20.273438 1267.019531 20.527344 C 1267.125 20.78125 1267.175781 21.046875 1267.175781 21.324219 C 1267.175781 21.597656 1267.125 21.863281 1267.019531 22.117188 C 1266.914062 22.371094 1266.761719 22.597656 1266.566406 22.792969 C 1266.375 22.984375 1266.148438 23.136719 1265.894531 23.242188 C 1265.640625 23.347656 1265.375 23.398438 1265.097656 23.398438 Z M 1265.097656 23.398438 " fill-opacity="1" fill-rule="nonzero"/></g><g clip-path="url(#ac785ead56)"><path fill="#ffffff" d="M 343.910156 180.753906 L 336.476562 181.792969 C 336.132812 181.84375 335.816406 182.003906 335.574219 182.25 C 335.332031 182.496094 335.171875 182.8125 335.117188 183.152344 L 334.078125 190.578125 L 333.039062 183.140625 C 332.988281 182.800781 332.828125 182.480469 332.582031 182.238281 C 332.335938 181.996094 332.019531 181.835938 331.679688 181.78125 L 324.253906 180.742188 L 331.6875 179.703125 C 332 179.621094 332.28125 179.441406 332.488281 179.195312 C 332.730469 178.949219 332.890625 178.632812 332.945312 178.292969 L 333.984375 170.867188 L 335.023438 178.300781 C 335.105469 178.65625 335.3125 178.972656 335.601562 179.195312 C 335.851562 179.4375 336.164062 179.597656 336.507812 179.652344 Z M 343.910156 180.753906 " fill-opacity="1" fill-rule="nonzero"/></g><path fill="#ffffff" d="M 238.003906 449.742188 L 228.222656 451.164062 C 227.773438 451.226562 227.359375 451.4375 227.039062 451.757812 C 226.71875 452.078125 226.507812 452.492188 226.4375 452.941406 L 225.023438 462.722656 L 223.601562 452.941406 C 223.480469 452.011719 222.75 451.28125 221.824219 451.15625 L 212.042969 449.742188 L 221.824219 448.320312 C 222.273438 448.257812 222.691406 448.046875 223.007812 447.726562 C 223.328125 447.40625 223.539062 446.992188 223.613281 446.542969 L 225.023438 436.761719 L 226.445312 446.542969 C 226.570312 447.472656 227.296875 448.203125 228.222656 448.328125 Z M 238.003906 449.742188 " fill-opacity="1" fill-rule="nonzero"/><path fill="#ffffff" d="M 45.914062 55.085938 L 40.050781 55.9375 C 39.777344 55.980469 39.527344 56.105469 39.332031 56.300781 C 39.136719 56.488281 39.011719 56.738281 38.980469 57.007812 L 38.128906 62.875 L 37.277344 57.007812 C 37.234375 56.738281 37.109375 56.484375 36.914062 56.289062 C 36.726562 56.09375 36.476562 55.96875 36.207031 55.9375 L 30.339844 55.085938 L 36.207031 54.234375 C 36.480469 54.191406 36.730469 54.066406 36.925781 53.871094 C 37.121094 53.683594 37.246094 53.433594 37.277344 53.164062 L 38.128906 47.296875 L 38.980469 53.164062 C 39.019531 53.4375 39.148438 53.6875 39.34375 53.882812 C 39.53125 54.078125 39.78125 54.203125 40.050781 54.234375 Z M 45.914062 55.085938 " fill-opacity="1" fill-rule="nonzero"/><path fill="#ffffff" d="M 304.453125 94.03125 C 304.042969 94.03125 303.644531 93.953125 303.261719 93.796875 C 302.878906 93.636719 302.542969 93.410156 302.25 93.121094 C 301.960938 92.828125 301.734375 92.492188 301.578125 92.109375 C 301.417969 91.726562 301.339844 91.328125 301.339844 90.917969 C 301.339844 90.503906 301.417969 90.105469 301.578125 89.722656 C 301.734375 89.34375 301.960938 89.003906 302.25 88.714844 C 302.542969 88.421875 302.878906 88.195312 303.261719 88.039062 C 303.644531 87.878906 304.042969 87.800781 304.453125 87.800781 C 304.867188 87.800781 305.265625 87.878906 305.644531 88.039062 C 306.027344 88.195312 306.363281 88.421875 306.65625 88.714844 C 306.949219 89.003906 307.175781 89.34375 307.332031 89.722656 C 307.488281 90.105469 307.570312 90.503906 307.570312 90.917969 C 307.570312 91.328125 307.488281 91.726562 307.332031 92.109375 C 307.175781 92.492188 306.949219 92.828125 306.65625 93.121094 C 306.363281 93.410156 306.027344 93.636719 305.644531 93.796875 C 305.265625 93.953125 304.867188 94.03125 304.453125 94.03125 Z M 304.453125 94.03125 " fill-opacity="1" fill-rule="nonzero"/><path fill="#ffffff" d="M 182.972656 212.949219 L 178.664062 213.570312 C 178.46875 213.605469 178.289062 213.699219 178.144531 213.832031 C 178.007812 213.980469 177.917969 214.164062 177.882812 214.359375 L 177.261719 218.660156 L 176.636719 214.351562 C 176.601562 214.15625 176.511719 213.976562 176.378906 213.832031 C 176.230469 213.695312 176.046875 213.605469 175.847656 213.570312 L 171.550781 212.949219 L 175.859375 212.324219 C 176.054688 212.289062 176.234375 212.199219 176.378906 212.066406 C 176.515625 211.917969 176.605469 211.734375 176.636719 211.535156 L 177.261719 207.238281 L 177.882812 211.546875 C 177.917969 211.742188 178.011719 211.921875 178.144531 212.066406 C 178.292969 212.203125 178.476562 212.292969 178.671875 212.324219 Z M 182.972656 212.949219 " fill-opacity="1" fill-rule="nonzero"/><path fill="#ffffff" d="M 233.847656 274.222656 L 229.539062 274.847656 C 229.347656 274.882812 229.167969 274.972656 229.019531 275.105469 C 228.886719 275.253906 228.792969 275.4375 228.761719 275.636719 L 228.136719 279.9375 L 227.515625 275.625 C 227.480469 275.433594 227.390625 275.253906 227.257812 275.105469 C 227.109375 274.972656 226.925781 274.878906 226.726562 274.847656 L 222.429688 274.222656 L 226.738281 273.601562 C 226.929688 273.566406 227.109375 273.476562 227.257812 273.339844 C 227.390625 273.195312 227.484375 273.011719 227.515625 272.8125 L 228.136719 268.511719 L 228.761719 272.820312 C 228.796875 273.015625 228.886719 273.195312 229.019531 273.339844 C 229.167969 273.476562 229.351562 273.566406 229.550781 273.601562 Z M 233.847656 274.222656 " fill-opacity="1" fill-rule="nonzero"/><path fill="#ffffff" d="M 144.554688 34.316406 L 136.34375 35.507812 C 135.949219 35.550781 135.582031 35.726562 135.304688 36.007812 C 135.023438 36.289062 134.847656 36.652344 134.792969 37.046875 L 133.652344 45.21875 L 132.457031 37.003906 C 132.417969 36.609375 132.242188 36.246094 131.960938 35.964844 C 131.679688 35.6875 131.3125 35.507812 130.921875 35.457031 L 122.75 34.316406 L 130.964844 33.121094 C 131.355469 33.078125 131.722656 32.902344 132 32.621094 C 132.28125 32.339844 132.460938 31.976562 132.511719 31.582031 L 133.652344 23.410156 L 134.847656 31.625 C 134.890625 32.019531 135.066406 32.386719 135.34375 32.664062 C 135.625 32.941406 135.992188 33.121094 136.382812 33.171875 Z M 144.554688 34.316406 " fill-opacity="1" fill-rule="nonzero"/><path fill="#ffffff" d="M 179.855469 367.695312 L 175.546875 368.316406 C 175.355469 368.355469 175.175781 368.445312 175.027344 368.578125 C 174.894531 368.726562 174.804688 368.910156 174.769531 369.109375 L 174.148438 373.40625 L 173.523438 369.109375 C 173.472656 368.695312 173.148438 368.367188 172.734375 368.316406 L 168.4375 367.695312 L 172.746094 367.070312 C 172.9375 367.035156 173.117188 366.945312 173.265625 366.8125 C 173.398438 366.664062 173.492188 366.480469 173.523438 366.28125 L 174.148438 361.984375 L 174.769531 366.28125 C 174.820312 366.695312 175.144531 367.023438 175.558594 367.070312 Z M 179.855469 367.695312 " fill-opacity="1" fill-rule="nonzero"/><path fill="#ffffff" d="M 63.566406 22.890625 L 59.269531 23.511719 C 58.855469 23.5625 58.527344 23.890625 58.480469 24.304688 L 57.855469 28.601562 L 57.234375 24.304688 C 57.183594 23.890625 56.855469 23.5625 56.445312 23.511719 L 52.144531 22.890625 L 56.453125 22.265625 C 56.648438 22.230469 56.828125 22.140625 56.972656 22.007812 C 57.113281 21.863281 57.207031 21.675781 57.234375 21.476562 L 57.855469 17.179688 L 58.480469 21.476562 C 58.527344 21.890625 58.855469 22.21875 59.269531 22.265625 Z M 63.566406 22.890625 " fill-opacity="1" fill-rule="nonzero"/><g clip-path="url(#39755c458e)"><path fill="#ffffff" d="M 53.183594 488.167969 L 48.875 488.792969 C 48.675781 488.824219 48.492188 488.917969 48.355469 489.0625 C 48.222656 489.207031 48.132812 489.386719 48.097656 489.582031 L 47.472656 493.882812 L 46.851562 489.582031 C 46.800781 489.167969 46.472656 488.84375 46.0625 488.792969 L 41.761719 488.167969 L 46.070312 487.546875 C 46.265625 487.511719 46.445312 487.421875 46.589844 487.285156 C 46.726562 487.140625 46.816406 486.957031 46.851562 486.757812 L 47.472656 482.457031 L 48.097656 486.765625 C 48.132812 486.960938 48.222656 487.140625 48.355469 487.285156 C 48.503906 487.421875 48.6875 487.511719 48.886719 487.546875 Z M 53.183594 488.167969 " fill-opacity="1" fill-rule="nonzero"/></g><path fill="#ffffff" d="M 260.84375 179.714844 L 254.980469 180.566406 C 254.707031 180.609375 254.457031 180.734375 254.261719 180.929688 C 254.066406 181.117188 253.941406 181.367188 253.910156 181.636719 L 253.058594 187.503906 L 252.207031 181.636719 C 252.164062 181.363281 252.039062 181.113281 251.84375 180.917969 C 251.65625 180.722656 251.40625 180.597656 251.136719 180.566406 L 245.269531 179.714844 L 251.136719 178.863281 C 251.40625 178.820312 251.660156 178.695312 251.855469 178.5 C 252.050781 178.3125 252.175781 178.0625 252.207031 177.792969 L 253.058594 171.925781 L 253.910156 177.792969 C 253.949219 178.0625 254.078125 178.316406 254.273438 178.507812 C 254.460938 178.707031 254.707031 178.832031 254.980469 178.863281 Z M 260.84375 179.714844 " fill-opacity="1" fill-rule="nonzero"/><path fill="#ffffff" d="M 42.800781 419.625 L 36.933594 420.476562 C 36.664062 420.515625 36.410156 420.644531 36.21875 420.839844 C 36.019531 421.027344 35.894531 421.273438 35.863281 421.546875 L 35.011719 427.414062 L 34.160156 421.546875 C 34.121094 421.273438 33.992188 421.023438 33.796875 420.828125 C 33.613281 420.632812 33.363281 420.507812 33.09375 420.476562 L 27.226562 419.625 L 33.09375 418.773438 C 33.363281 418.730469 33.613281 418.601562 33.808594 418.410156 C 34.007812 418.222656 34.132812 417.972656 34.160156 417.703125 L 35.011719 411.835938 L 35.863281 417.703125 C 35.90625 417.972656 36.035156 418.226562 36.226562 418.417969 C 36.414062 418.617188 36.664062 418.742188 36.933594 418.773438 Z M 42.800781 419.625 " fill-opacity="1" fill-rule="nonzero"/><path fill="#ffffff" d="M 162.207031 312.652344 L 156.339844 313.503906 C 156.070312 313.542969 155.816406 313.671875 155.625 313.867188 C 155.425781 314.054688 155.300781 314.300781 155.269531 314.574219 L 154.417969 320.441406 L 153.566406 314.574219 C 153.527344 314.300781 153.398438 314.050781 153.203125 313.855469 C 153.015625 313.660156 152.769531 313.535156 152.496094 313.503906 L 146.632812 312.652344 L 152.496094 311.800781 C 152.769531 311.757812 153.019531 311.628906 153.214844 311.4375 C 153.410156 311.25 153.535156 311 153.566406 310.730469 L 154.417969 304.863281 L 155.269531 310.730469 C 155.3125 311 155.441406 311.253906 155.632812 311.445312 C 155.820312 311.644531 156.070312 311.769531 156.339844 311.800781 Z M 162.207031 312.652344 " fill-opacity="1" fill-rule="nonzero"/><path fill="#ffffff" d="M 226.582031 340.691406 L 216.023438 342.25 C 215.535156 342.320312 215.082031 342.546875 214.734375 342.894531 C 214.390625 343.242188 214.167969 343.6875 214.089844 344.171875 L 212.5625 354.714844 L 211.007812 344.152344 C 210.863281 343.152344 210.082031 342.367188 209.085938 342.21875 L 198.546875 340.691406 L 209.105469 339.132812 C 209.59375 339.066406 210.046875 338.839844 210.394531 338.492188 C 210.738281 338.140625 210.960938 337.695312 211.039062 337.214844 L 212.5625 326.671875 L 214.121094 337.234375 C 214.265625 338.230469 215.046875 339.015625 216.042969 339.164062 Z M 226.582031 340.691406 " fill-opacity="1" fill-rule="nonzero"/><path fill="#ffffff" d="M 335.601562 340.171875 C 335.191406 340.171875 334.792969 340.09375 334.410156 339.9375 C 334.03125 339.777344 333.691406 339.550781 333.402344 339.261719 C 333.109375 338.96875 332.882812 338.632812 332.726562 338.25 C 332.566406 337.867188 332.488281 337.46875 332.488281 337.058594 C 332.488281 336.644531 332.566406 336.246094 332.726562 335.863281 C 332.882812 335.484375 333.109375 335.144531 333.402344 334.855469 C 333.691406 334.5625 334.03125 334.335938 334.410156 334.179688 C 334.792969 334.019531 335.191406 333.941406 335.601562 333.941406 C 336.015625 333.941406 336.414062 334.019531 336.796875 334.179688 C 337.175781 334.335938 337.515625 334.5625 337.804688 334.855469 C 338.097656 335.144531 338.324219 335.484375 338.480469 335.863281 C 338.640625 336.246094 338.71875 336.644531 338.71875 337.058594 C 338.71875 337.46875 338.640625 337.867188 338.480469 338.25 C 338.324219 338.632812 338.097656 338.96875 337.804688 339.261719 C 337.515625 339.550781 337.175781 339.777344 336.796875 339.9375 C 336.414062 340.09375 336.015625 340.171875 335.601562 340.171875 Z M 335.601562 340.171875 " fill-opacity="1" fill-rule="nonzero"/><path fill="#ffffff" d="M 314.835938 293.4375 C 314.5625 293.4375 314.296875 293.386719 314.042969 293.28125 C 313.789062 293.175781 313.5625 293.023438 313.367188 292.828125 C 313.175781 292.632812 313.023438 292.410156 312.917969 292.15625 C 312.8125 291.902344 312.761719 291.636719 312.761719 291.359375 C 312.761719 291.085938 312.8125 290.820312 312.917969 290.566406 C 313.023438 290.3125 313.175781 290.085938 313.367188 289.890625 C 313.5625 289.695312 313.789062 289.546875 314.042969 289.441406 C 314.296875 289.335938 314.5625 289.285156 314.835938 289.285156 C 315.113281 289.285156 315.378906 289.335938 315.632812 289.441406 C 315.886719 289.546875 316.109375 289.695312 316.304688 289.890625 C 316.5 290.085938 316.652344 290.3125 316.757812 290.566406 C 316.859375 290.820312 316.914062 291.085938 316.914062 291.359375 C 316.914062 291.636719 316.859375 291.902344 316.757812 292.15625 C 316.652344 292.410156 316.5 292.632812 316.304688 292.828125 C 316.109375 293.023438 315.886719 293.175781 315.632812 293.28125 C 315.378906 293.386719 315.113281 293.4375 314.835938 293.4375 Z M 314.835938 293.4375 " fill-opacity="1" fill-rule="nonzero"/><g clip-path="url(#3dba14dbfc)"><path fill="#ffffff" d="M 22.035156 457.53125 C 21.757812 457.53125 21.496094 457.480469 21.238281 457.375 C 20.984375 457.269531 20.761719 457.117188 20.566406 456.921875 C 20.371094 456.726562 20.222656 456.503906 20.117188 456.25 C 20.011719 455.996094 19.957031 455.730469 19.957031 455.453125 C 19.957031 455.179688 20.011719 454.914062 20.117188 454.660156 C 20.222656 454.40625 20.371094 454.179688 20.566406 453.984375 C 20.761719 453.789062 20.984375 453.640625 21.238281 453.535156 C 21.496094 453.429688 21.757812 453.378906 22.035156 453.378906 C 22.308594 453.378906 22.574219 453.429688 22.828125 453.535156 C 23.082031 453.640625 23.308594 453.789062 23.503906 453.984375 C 23.699219 454.179688 23.847656 454.40625 23.953125 454.660156 C 24.058594 454.914062 24.109375 455.179688 24.109375 455.453125 C 24.109375 455.730469 24.058594 455.996094 23.953125 456.25 C 23.847656 456.503906 23.699219 456.726562 23.503906 456.921875 C 23.308594 457.117188 23.082031 457.269531 22.828125 457.375 C 22.574219 457.480469 22.308594 457.53125 22.035156 457.53125 Z M 22.035156 457.53125 " fill-opacity="1" fill-rule="nonzero"/></g><path fill="#ffffff" d="M 308.609375 401.449219 C 308.335938 401.449219 308.066406 401.421875 307.796875 401.367188 C 307.53125 401.316406 307.269531 401.238281 307.019531 401.132812 C 306.765625 401.027344 306.527344 400.898438 306.300781 400.75 C 306.074219 400.597656 305.863281 400.425781 305.671875 400.230469 C 305.476562 400.039062 305.304688 399.828125 305.152344 399.601562 C 305.003906 399.375 304.875 399.136719 304.769531 398.882812 C 304.667969 398.632812 304.585938 398.371094 304.535156 398.105469 C 304.480469 397.835938 304.453125 397.566406 304.453125 397.292969 C 304.453125 397.023438 304.480469 396.75 304.535156 396.484375 C 304.585938 396.214844 304.667969 395.957031 304.769531 395.703125 C 304.875 395.453125 305.003906 395.214844 305.152344 394.988281 C 305.304688 394.757812 305.476562 394.550781 305.671875 394.355469 C 305.863281 394.164062 306.074219 393.992188 306.300781 393.839844 C 306.527344 393.6875 306.765625 393.5625 307.019531 393.457031 C 307.269531 393.351562 307.53125 393.273438 307.796875 393.21875 C 308.066406 393.167969 308.335938 393.140625 308.609375 393.140625 C 308.878906 393.140625 309.148438 393.167969 309.417969 393.21875 C 309.683594 393.273438 309.945312 393.351562 310.195312 393.457031 C 310.449219 393.5625 310.6875 393.6875 310.914062 393.839844 C 311.140625 393.992188 311.351562 394.164062 311.542969 394.355469 C 311.738281 394.550781 311.910156 394.757812 312.0625 394.988281 C 312.210938 395.214844 312.339844 395.453125 312.445312 395.703125 C 312.550781 395.957031 312.628906 396.214844 312.679688 396.484375 C 312.734375 396.75 312.761719 397.023438 312.761719 397.292969 C 312.761719 397.566406 312.734375 397.835938 312.679688 398.105469 C 312.628906 398.371094 312.550781 398.632812 312.445312 398.882812 C 312.339844 399.136719 312.210938 399.375 312.0625 399.601562 C 311.910156 399.828125 311.738281 400.039062 311.542969 400.230469 C 311.351562 400.425781 311.140625 400.597656 310.914062 400.75 C 310.6875 400.898438 310.449219 401.027344 310.195312 401.132812 C 309.945312 401.238281 309.683594 401.316406 309.417969 401.367188 C 309.148438 401.421875 308.878906 401.449219 308.609375 401.449219 Z M 308.609375 401.449219 " fill-opacity="1" fill-rule="nonzero"/><path fill="#ffffff" d="M 148.636719 185.425781 C 148.222656 185.425781 147.824219 185.347656 147.445312 185.1875 C 147.0625 185.03125 146.726562 184.804688 146.433594 184.515625 C 146.140625 184.222656 145.914062 183.882812 145.757812 183.503906 C 145.597656 183.121094 145.519531 182.722656 145.519531 182.3125 C 145.519531 181.898438 145.597656 181.5 145.757812 181.117188 C 145.914062 180.738281 146.140625 180.398438 146.433594 180.109375 C 146.726562 179.816406 147.0625 179.589844 147.445312 179.433594 C 147.824219 179.273438 148.222656 179.195312 148.636719 179.195312 C 149.046875 179.195312 149.445312 179.273438 149.828125 179.433594 C 150.210938 179.589844 150.546875 179.816406 150.839844 180.109375 C 151.128906 180.398438 151.355469 180.738281 151.511719 181.117188 C 151.671875 181.5 151.75 181.898438 151.75 182.3125 C 151.75 182.722656 151.671875 183.121094 151.511719 183.503906 C 151.355469 183.882812 151.128906 184.222656 150.839844 184.515625 C 150.546875 184.804688 150.210938 185.03125 149.828125 185.1875 C 149.445312 185.347656 149.046875 185.425781 148.636719 185.425781 Z M 148.636719 185.425781 " fill-opacity="1" fill-rule="nonzero"/><g mask="url(#9191b2ae73)"><g transform="matrix(1, 0, 0, 1, 0, 0.000000000000039746)"><g clip-path="url(#2187fc02b0)"><g clip-path="url(#ff4ee8f378)"><g clip-path="url(#3dc499dc42)"><g clip-path="url(#3c6a24cacf)"><g clip-path="url(#fdb1b75434)"><path fill="#e4e5e7" d="M -34.765625 -55.488281 L -430.21875 253.390625 L 241.414062 1113.277344 L 612.597656 823.355469 C 596.433594 818.179688 580.746094 814.675781 566.042969 813.203125 C 346.644531 791.691406 211.859375 553.480469 170.199219 362.457031 C 138.894531 218.722656 71.097656 59.101562 -34.765625 -55.488281 Z M -34.765625 -55.488281 " fill-opacity="1" fill-rule="evenodd"/></g></g></g></g></g></g></g><g mask="url(#4a5deb8ea4)"><g transform="matrix(1, 0, 0, 1, 978, 0.000000000000039746)"><g clip-path="url(#d5d78b0d3b)"><g clip-path="url(#7cdb0dc0c6)"><g clip-path="url(#9225d27793)"><g clip-path="url(#9264030c6a)"><g clip-path="url(#b5aaaddeca)"><path fill="#e4e5e7" d="M 13.511719 937.058594 L 490.714844 1092.199219 L 828.050781 54.554688 L 380.140625 -91.0625 C 384.882812 -74.765625 390.75 -59.800781 397.753906 -46.785156 C 502.597656 147.136719 380.476562 392.082031 245.402344 533.433594 C 143.742188 639.753906 49.316406 785.21875 13.511719 937.058594 Z M 13.511719 937.058594 " fill-opacity="1" fill-rule="evenodd"/></g></g></g></g></g></g></g></svg>